<svg width="73" height="108" viewBox="0 0 73 108" fill="none" xmlns="http://www.w3.org/2000/svg">
<path d="M71.6999 35.3099C71.6999 26.1175 68.0482 17.3016 61.5482 10.8016C55.0482 4.30156 46.2323 0.649902 37.0399 0.649902C27.8475 0.649902 19.0316 4.30156 12.5316 10.8016C6.03154 17.3016 2.37988 26.1175 2.37988 35.3099H71.6999Z" fill="url(#paint0_linear_2_12894)"/>
<path d="M60.1398 35.3099C60.1398 16.1699 49.8198 0.649902 37.1398 0.649902C24.4598 0.649902 14.0898 16.1699 14.0898 35.3099H60.1398Z" fill="#6564DB"/>
<path d="M45.8505 35.3099C45.8505 16.1699 41.9105 0.649902 37.0405 0.649902C32.1705 0.649902 28.2305 16.1699 28.2305 35.3099H45.8505Z" fill="url(#paint1_linear_2_12894)"/>
<path d="M37.0399 40.41C56.1821 40.41 71.6999 38.1266 71.6999 35.31C71.6999 32.4933 56.1821 30.21 37.0399 30.21C17.8977 30.21 2.37988 32.4933 2.37988 35.31C2.37988 38.1266 17.8977 40.41 37.0399 40.41Z" fill="#6564DB"/>
<g style="mix-blend-mode:multiply" opacity="0.5">
<path d="M71.7006 35.3099C71.7006 36.8399 67.1206 38.2099 59.8706 39.1499C55.8706 39.6599 51.0806 40.0399 45.7906 40.2499C43.0006 40.3499 40.0706 40.4099 37.0406 40.4099C34.0106 40.4099 31.0406 40.3499 28.2906 40.2399C23.0006 40.0399 18.2106 39.6599 14.2206 39.1499C6.97063 38.2099 2.39062 36.8399 2.39062 35.3099C2.39062 33.7799 7.39062 32.3099 15.1706 31.3099C19.0806 30.8399 23.6906 30.4899 28.7506 30.3099C31.4106 30.2199 34.1806 30.1599 37.0406 30.1599C39.9006 30.1599 42.6806 30.2199 45.3306 30.3099C50.4006 30.4899 55.0106 30.8399 58.9206 31.3099C66.7206 32.2899 71.7006 33.7099 71.7006 35.3099Z" fill="#7B8C9D"/>
</g>
<g style="mix-blend-mode:multiply" opacity="0.5">
<path d="M28.7507 30.3499C28.5307 33.4999 28.3707 36.8099 28.2907 40.2399C23.0007 40.0399 18.2107 39.6599 14.2207 39.1499C14.4207 36.4832 14.7374 33.8832 15.1707 31.3499C19.0807 30.8799 23.6907 30.5299 28.7507 30.3499Z" fill="#7B8C9D"/>
<path d="M59.871 39.1499C55.871 39.6599 51.081 40.0398 45.791 40.2498C45.711 36.8198 45.5511 33.4999 45.3311 30.3499C50.4011 30.5299 55.0111 30.8799 58.9211 31.3499C59.3544 33.8565 59.671 36.4565 59.871 39.1499Z" fill="#7B8C9D"/>
</g>
<path d="M37.0404 65.4299C36.8067 65.4304 36.5803 65.349 36.4004 65.2L1.74039 36.0699C1.5375 35.8989 1.41088 35.6542 1.38837 35.3898C1.36587 35.1254 1.44932 34.8628 1.62038 34.6599C1.79145 34.4571 2.0361 34.3304 2.30053 34.3079C2.56495 34.2854 2.8275 34.3689 3.03039 34.5399L37.0304 63.12L71.0304 34.5399C71.1291 34.4444 71.2465 34.3703 71.3752 34.3222C71.5039 34.274 71.6411 34.2529 71.7783 34.2602C71.9155 34.2674 72.0497 34.3028 72.1726 34.3643C72.2955 34.4257 72.4044 34.5118 72.4925 34.6171C72.5807 34.7225 72.6462 34.8449 72.685 34.9767C72.7237 35.1085 72.7349 35.2469 72.7178 35.3832C72.7007 35.5195 72.6557 35.6508 72.5856 35.769C72.5155 35.8872 72.4218 35.9896 72.3104 36.0699L37.6904 65.2C37.5058 65.3476 37.2768 65.4286 37.0404 65.4299Z" fill="#13304E"/>
<path d="M37.04 65.4298C36.813 65.437 36.5902 65.3666 36.4084 65.2303C36.2267 65.094 36.0967 64.8998 36.04 64.6798L27.3501 30.5998C27.2838 30.3425 27.3224 30.0695 27.4574 29.8407C27.5924 29.6119 27.8128 29.4461 28.07 29.3798C28.3273 29.3135 28.6004 29.3521 28.8292 29.4871C29.058 29.6221 29.2237 29.8425 29.29 30.0998L37.04 60.3698L44.79 29.9398C44.855 29.6825 45.0195 29.4616 45.2474 29.3256C45.4753 29.1897 45.7478 29.1498 46.0051 29.2148C46.2623 29.2798 46.4832 29.4443 46.6192 29.6721C46.7552 29.9 46.795 30.1725 46.7301 30.4298L38.01 64.6598C37.9534 64.8798 37.8235 65.074 37.6417 65.2103C37.4599 65.3466 37.2371 65.417 37.01 65.4098L37.04 65.4298Z" fill="#13304E"/>
<path d="M2.38992 36.7798C3.20178 36.7798 3.85992 36.1217 3.85992 35.3098C3.85992 34.498 3.20178 33.8398 2.38992 33.8398C1.57806 33.8398 0.919922 34.498 0.919922 35.3098C0.919922 36.1217 1.57806 36.7798 2.38992 36.7798Z" fill="#13304E"/>
<path d="M28.3196 31.6797C29.1315 31.6797 29.7896 31.0216 29.7896 30.2097C29.7896 29.3979 29.1315 28.7397 28.3196 28.7397C27.5077 28.7397 26.8496 29.3979 26.8496 30.2097C26.8496 31.0216 27.5077 31.6797 28.3196 31.6797Z" fill="#13304E"/>
<path d="M45.76 31.6797C46.5719 31.6797 47.23 31.0216 47.23 30.2097C47.23 29.3979 46.5719 28.7397 45.76 28.7397C44.9482 28.7397 44.29 29.3979 44.29 30.2097C44.29 31.0216 44.9482 31.6797 45.76 31.6797Z" fill="#13304E"/>
<path d="M59.6107 84.6C59.6179 85.2678 59.5879 85.9355 59.5207 86.6C59.3035 89.2244 58.6265 91.7901 57.5207 94.18C56.9607 95.3791 56.2912 96.524 55.5207 97.6C54.775 98.6728 53.935 99.6768 53.0106 100.6C51.1477 102.459 48.9796 103.984 46.6007 105.11C45.4002 105.665 44.156 106.12 42.8807 106.47C41.6168 106.807 40.3247 107.028 39.0207 107.13C37.6908 107.266 36.3505 107.266 35.0207 107.13C33.7166 107.028 32.4245 106.807 31.1607 106.47C29.8871 106.125 28.6457 105.67 27.4506 105.11C26.2663 104.546 25.135 103.877 24.0706 103.11C21.9118 101.601 20.0335 99.7261 18.5207 97.57C17.752 96.4893 17.0826 95.3413 16.5207 94.14C15.4165 91.753 14.7396 89.1909 14.5207 86.57C14.4538 85.9055 14.4238 85.2378 14.4306 84.57C14.4252 83.9189 14.4553 83.2679 14.5207 82.62C14.6236 81.3014 14.8513 79.9956 15.2006 78.72C15.5314 77.4555 15.9765 76.2238 16.5306 75.04C17.0931 73.8422 17.7625 72.6975 18.5306 71.62C20.0363 69.4578 21.9157 67.5817 24.0807 66.08C26.2327 64.5691 28.6321 63.4456 31.1706 62.76C32.4353 62.4244 33.7269 62.2002 35.0306 62.09C35.6973 62.03 36.364 62 37.0306 62C37.6973 62 38.364 62.03 39.0306 62.09C40.3344 62.2002 41.626 62.4244 42.8906 62.76C44.1689 63.1009 45.4139 63.556 46.6107 64.12C47.7898 64.6878 48.9173 65.357 49.9806 66.12C52.1456 67.6217 54.025 69.4978 55.5307 71.66C56.2988 72.7375 56.9682 73.8822 57.5307 75.08C58.0848 76.2638 58.5299 77.4955 58.8607 78.76C59.2102 80.039 59.4379 81.3481 59.5406 82.67C59.599 83.3116 59.6223 83.9559 59.6107 84.6Z" fill="#FB9129"/>
<path d="M48.4406 84.6L59.5206 86.6C59.4168 87.9217 59.1891 89.2308 58.8405 90.51L47.7505 88.51L57.5105 94.14C56.9506 95.3391 56.281 96.484 55.5105 97.56L45.7706 91.94L53.0005 100.56C52.0772 101.496 51.0733 102.35 50.0005 103.11L42.7706 94.49L46.6306 105.07C45.4301 105.625 44.1859 106.08 42.9106 106.43L39.0506 95.84V107.09C37.7207 107.226 36.3804 107.226 35.0506 107.09V95.78L31.1906 106.37C29.9169 106.025 28.6756 105.57 27.4805 105.01L31.3306 94.43L24.1405 103.05C23.0678 102.29 22.0639 101.436 21.1405 100.5L28.3806 91.88L18.6306 97.51C17.8619 96.4293 17.1925 95.2812 16.6306 94.08L26.3905 88.45L15.3006 90.45C14.952 89.1742 14.7243 87.8684 14.6205 86.55L25.7106 84.55L14.5605 82.6C14.6635 81.2814 14.8912 79.9756 15.2406 78.7L26.3306 80.7L16.5705 75.06C17.133 73.8622 17.8024 72.7175 18.5705 71.64L28.3205 77.27L21.0705 68.6C21.9941 67.6669 22.9979 66.817 24.0705 66.06L31.3006 74.68L27.4505 64.1C28.6439 63.5363 29.8856 63.0811 31.1606 62.74L35.0206 73.33V62.07C35.6872 62.01 36.3539 61.98 37.0206 61.98C37.6872 61.98 38.3539 62.01 39.0206 62.07V73.33L42.8806 62.74C44.1588 63.0808 45.4038 63.536 46.6006 64.1L42.7406 74.68L49.9706 66.06C51.0431 66.817 52.047 67.6669 52.9706 68.6L45.7406 77.23L55.4805 71.6C56.2487 72.6775 56.9181 73.8221 57.4805 75.02L47.7206 80.66L58.8105 78.66C59.1601 79.9389 59.3878 81.2481 59.4906 82.57L48.4406 84.6Z" fill="#FBD34C"/>
<path d="M54.7797 87.4443C56.3699 77.6479 49.7175 68.4173 39.9212 66.8272C30.1248 65.237 20.8942 71.8894 19.3041 81.6857C17.7139 91.4821 24.3663 100.713 34.1626 102.303C43.959 103.893 53.1896 97.2406 54.7797 87.4443Z" fill="#FB9129"/>
<path d="M52.7856 87.1207C54.1971 78.4256 48.2925 70.2326 39.5973 68.8211C30.9022 67.4097 22.7092 73.3144 21.2978 82.0095C19.8864 90.7046 25.791 98.8976 34.4861 100.309C43.1812 101.72 51.3742 95.8158 52.7856 87.1207Z" fill="#EFBC16"/>
<path d="M43.9403 87.25C43.8267 86.8776 43.6724 86.5188 43.4803 86.18C43.2764 85.8473 43.0274 85.5444 42.7403 85.28C42.4357 85.0137 42.0999 84.7854 41.7403 84.6C41.3793 84.4074 40.9917 84.2693 40.5903 84.19V84.08C41.1101 83.8619 41.5874 83.5538 42.0003 83.17C42.4144 82.7859 42.7534 82.3281 43.0003 81.82C43.2504 81.306 43.3804 80.7417 43.3803 80.17C43.4022 79.5502 43.2873 78.9331 43.0435 78.3627C42.7998 77.7923 42.4334 77.2827 41.9703 76.87C41.501 76.472 40.9521 76.1788 40.3603 76.01V74.21C40.3603 74.1252 40.3266 74.0438 40.2666 73.9838C40.2066 73.9238 40.1251 73.89 40.0403 73.89H37.9003C37.8574 73.8887 37.8147 73.896 37.7748 73.9115C37.7348 73.927 37.6983 73.9503 37.6675 73.9802C37.6367 74.01 37.6123 74.0457 37.5956 74.0852C37.5789 74.1247 37.5703 74.1672 37.5703 74.21V75.6H35.6803V74.2C35.6803 74.1572 35.6717 74.1147 35.655 74.0752C35.6383 74.0357 35.6138 74 35.583 73.9702C35.5523 73.9403 35.5158 73.9169 35.4758 73.9015C35.4358 73.886 35.3931 73.8787 35.3503 73.88H33.2103C33.1254 73.88 33.044 73.9137 32.984 73.9738C32.924 74.0338 32.8903 74.1152 32.8903 74.2V75.6H32.2003C32.0655 75.5859 31.9292 75.602 31.8015 75.6473C31.6737 75.6926 31.5577 75.7658 31.4618 75.8616C31.366 75.9574 31.2928 76.0735 31.2475 76.2012C31.2023 76.329 31.1861 76.4652 31.2003 76.6V92.6C31.1861 92.7348 31.2023 92.8711 31.2475 92.9988C31.2928 93.1266 31.366 93.2426 31.4618 93.3385C31.5577 93.4343 31.6737 93.5075 31.8015 93.5528C31.9292 93.598 32.0655 93.6142 32.2003 93.6H32.8903V94.86C32.8903 94.9449 32.924 95.0263 32.984 95.0863C33.044 95.1463 33.1254 95.18 33.2103 95.18H35.3503C35.3931 95.1814 35.4358 95.1741 35.4758 95.1586C35.5158 95.1431 35.5523 95.1198 35.583 95.0899C35.6138 95.0601 35.6383 95.0243 35.655 94.9849C35.6717 94.9454 35.6803 94.9029 35.6803 94.86V93.6H37.5703V94.86C37.5703 94.9029 37.5789 94.9454 37.5956 94.9849C37.6123 95.0243 37.6367 95.0601 37.6675 95.0899C37.6983 95.1198 37.7348 95.1431 37.7748 95.1586C37.8147 95.1741 37.8574 95.1814 37.9003 95.18H40.0403C40.1251 95.18 40.2066 95.1463 40.2666 95.0863C40.3266 95.0263 40.3603 94.9449 40.3603 94.86V93.29C41.1442 93.1261 41.8798 92.7839 42.5103 92.29C43.0491 91.8059 43.4718 91.2066 43.7471 90.5365C44.0224 89.8665 44.1431 89.1431 44.1003 88.42C44.1027 88.0244 44.0489 87.6305 43.9403 87.25ZM39.4203 89.73C38.9226 90.118 38.3 90.3101 37.6703 90.27H35.1403V86.17H37.2503C37.9746 86.1279 38.6951 86.3019 39.3203 86.67C39.5582 86.8403 39.749 87.0682 39.8749 87.3322C40.0009 87.5963 40.0577 87.888 40.0403 88.18C40.0547 88.4678 40.0068 88.7553 39.8997 89.0228C39.7927 89.2903 39.6292 89.5316 39.4203 89.73ZM38.7403 79.44C38.939 79.6167 39.0947 79.8365 39.1952 80.0827C39.2957 80.3288 39.3385 80.5948 39.3203 80.86C39.3218 81.1196 39.2672 81.3764 39.1602 81.6129C39.0532 81.8494 38.8963 82.0599 38.7003 82.23C38.201 82.6394 37.5645 82.8432 36.9203 82.8H35.1403V78.96H36.9703C37.5978 78.9128 38.2226 79.0822 38.7403 79.44Z" fill="white"/>
<defs>
<linearGradient id="paint0_linear_2_12894" x1="37.0399" y1="0.649902" x2="37.0399" y2="35.3099" gradientUnits="userSpaceOnUse">
<stop stop-color="#6564DB"/>
<stop offset="1" stop-color="#55DDE0"/>
</linearGradient>
<linearGradient id="paint1_linear_2_12894" x1="37.0405" y1="0.649902" x2="37.0405" y2="35.3099" gradientUnits="userSpaceOnUse">
<stop stop-color="#6564DB"/>
<stop offset="1" stop-color="#55DDE0"/>
</linearGradient>
</defs>
</svg>
