<svg width="79" height="110" viewBox="0 0 79 110" fill="none" xmlns="http://www.w3.org/2000/svg">
<path d="M76.6703 37.3C76.6703 27.4074 72.7405 17.92 65.7454 10.9249C58.7503 3.92981 49.2629 0 39.3703 0C29.4778 0 19.9903 3.92981 12.9952 10.9249C6.00013 17.92 2.07031 27.4074 2.07031 37.3H76.6703Z" fill="url(#paint0_linear_2_12893)"/>
<path d="M64.1403 37.3C64.1403 16.7 53.0403 0 39.3403 0C25.6403 0 14.5303 16.7 14.5303 37.3H64.1403Z" fill="#6564DB"/>
<path d="M48.8506 37.3C48.8506 16.7 44.6006 0 39.3706 0C34.1406 0 29.8906 16.7 29.8906 37.3H48.8506Z" fill="url(#paint1_linear_2_12893)"/>
<path d="M39.3703 42.7901C59.9706 42.7901 76.6703 40.3321 76.6703 37.3001C76.6703 34.268 59.9706 31.8101 39.3703 31.8101C18.7701 31.8101 2.07031 34.268 2.07031 37.3001C2.07031 40.3321 18.7701 42.7901 39.3703 42.7901Z" fill="#6564DB"/>
<g style="mix-blend-mode:multiply" opacity="0.5">
<path d="M76.6703 37.3001C76.6703 38.9501 71.7403 40.4201 63.9303 41.4301C59.6403 41.9801 54.4703 42.4301 48.7803 42.6201C45.7803 42.7201 42.6203 42.7901 39.3703 42.7901C36.1203 42.7901 32.9603 42.7201 29.9503 42.6101C24.2603 42.3901 19.1003 41.9801 14.8103 41.4301C7.00033 40.4301 2.07031 38.9501 2.07031 37.3001C2.07031 35.6501 7.44032 34.0501 15.8303 33.0401C20.0303 32.5301 25.0003 32.1601 30.4403 31.9601C33.3003 31.8601 36.2903 31.8101 39.3703 31.8101C42.4503 31.8101 45.4403 31.8101 48.2903 31.9601C53.7403 32.1601 58.7003 32.5301 62.9103 33.0401C71.3003 34.0501 76.6703 35.6001 76.6703 37.3001Z" fill="#7B8C9D"/>
</g>
<g style="mix-blend-mode:multiply" opacity="0.5">
<path d="M30.4405 31.96C30.2005 35.35 30.0305 38.96 29.9505 42.61C24.2605 42.39 19.1005 41.98 14.8105 41.43C15.0172 38.5366 15.3505 35.74 15.8105 33.04C20.0305 32.53 25.0005 32.16 30.4405 31.96Z" fill="#7B8C9D"/>
<path d="M63.931 41.43C59.641 41.98 54.471 42.43 48.781 42.62C48.701 38.92 48.531 35.35 48.291 31.96C53.741 32.16 58.701 32.53 62.911 33.04C63.3843 35.74 63.7244 38.5366 63.931 41.43Z" fill="#7B8C9D"/>
</g>
<path d="M39.3708 69.5999C39.1344 69.5986 38.9054 69.5176 38.7208 69.3699L1.43079 38.0599C1.31935 37.9796 1.22566 37.8771 1.15557 37.759C1.08547 37.6408 1.04049 37.5095 1.0234 37.3732C1.0063 37.2369 1.01748 37.0985 1.05623 36.9667C1.09499 36.8349 1.16048 36.7125 1.24863 36.6071C1.33678 36.5017 1.4457 36.4157 1.56859 36.3543C1.69148 36.2928 1.82572 36.2574 1.96291 36.2502C2.1001 36.2429 2.23731 36.264 2.36599 36.3122C2.49466 36.3603 2.61205 36.4344 2.7108 36.5299L39.3708 67.3299L76.0208 36.5299C76.1213 36.4452 76.2374 36.3812 76.3627 36.3413C76.4879 36.3015 76.6197 36.2868 76.7507 36.2979C76.8816 36.3091 77.009 36.3459 77.1257 36.4063C77.2424 36.4667 77.3461 36.5495 77.4308 36.6499C77.5155 36.7504 77.5796 36.8666 77.6194 36.9918C77.6592 37.117 77.674 37.2489 77.6628 37.3798C77.6517 37.5107 77.6149 37.6382 77.5545 37.7549C77.4941 37.8716 77.4113 37.9752 77.3108 38.0599L40.0108 69.4099C39.8255 69.5447 39.5996 69.6118 39.3708 69.5999Z" fill="#13304E"/>
<path d="M39.3709 69.5999C39.1438 69.6071 38.9211 69.5368 38.7393 69.4004C38.5575 69.2641 38.4276 69.07 38.3709 68.8499L28.9809 32.1899C28.9146 31.9327 28.9532 31.6596 29.0883 31.4308C29.2233 31.202 29.4437 31.0362 29.7009 30.9699C29.9582 30.9036 30.2313 30.9422 30.46 31.0773C30.6888 31.2123 30.8546 31.4327 30.9209 31.6899L39.3609 64.5999L47.7809 31.5999C47.8459 31.3427 48.0104 31.1218 48.2383 30.9858C48.4661 30.8498 48.7387 30.81 48.9959 30.8749C49.2532 30.9399 49.4741 31.1044 49.6101 31.3323C49.746 31.5602 49.7859 31.8327 49.7209 32.0899L40.3409 68.8899C40.2842 69.11 40.1543 69.3041 39.9726 69.4404C39.7908 69.5768 39.568 69.6471 39.3409 69.6399L39.3709 69.5999Z" fill="#13304E"/>
<path d="M2.07047 38.89C2.9486 38.89 3.66048 38.1781 3.66048 37.3C3.66048 36.4218 2.9486 35.71 2.07047 35.71C1.19233 35.71 0.480469 36.4218 0.480469 37.3C0.480469 38.1781 1.19233 38.89 2.07047 38.89Z" fill="#13304E"/>
<path d="M76.6701 38.89C77.5482 38.89 78.2601 38.1781 78.2601 37.3C78.2601 36.4218 77.5482 35.71 76.6701 35.71C75.7919 35.71 75.0801 36.4218 75.0801 37.3C75.0801 38.1781 75.7919 38.89 76.6701 38.89Z" fill="#13304E"/>
<path d="M29.9806 33.4C30.8588 33.4 31.5706 32.6881 31.5706 31.81C31.5706 30.9318 30.8588 30.22 29.9806 30.22C29.1025 30.22 28.3906 30.9318 28.3906 31.81C28.3906 32.6881 29.1025 33.4 29.9806 33.4Z" fill="#13304E"/>
<path d="M48.7502 33.4C49.6283 33.4 50.3402 32.6881 50.3402 31.81C50.3402 30.9318 49.6283 30.22 48.7502 30.22C47.872 30.22 47.1602 30.9318 47.1602 31.81C47.1602 32.6881 47.872 33.4 48.7502 33.4Z" fill="#13304E"/>
<path d="M61.5209 87.6C61.5209 88.25 61.5209 88.88 61.4309 89.51C61.2063 92.0914 60.5293 94.6131 59.4309 96.96C58.8848 98.1319 58.2356 99.253 57.4909 100.31C56.753 101.362 55.9266 102.349 55.0209 103.26C54.0962 104.177 53.0923 105.01 52.0209 105.75C50.9741 106.491 49.863 107.137 48.7009 107.68C47.5251 108.228 46.3039 108.673 45.0509 109.01C43.8132 109.343 42.5481 109.564 41.2709 109.67C40.6042 109.73 39.9542 109.76 39.3209 109.76C38.6709 109.76 38.0209 109.76 37.3809 109.67C36.1036 109.564 34.8385 109.343 33.6009 109.01C32.347 108.676 31.1255 108.231 29.9509 107.68C28.7879 107.139 27.6766 106.493 26.6309 105.75C25.5575 105.013 24.5534 104.179 23.6309 103.26C22.7276 102.35 21.9014 101.367 21.1609 100.32C20.4182 99.2582 19.7691 98.134 19.2209 96.96C18.1241 94.616 17.4472 92.0979 17.2209 89.52C17.1609 88.8933 17.1309 88.2533 17.1309 87.6C17.1309 86.9466 17.1609 86.3066 17.2209 85.68C17.3262 84.3887 17.5505 83.11 17.8909 81.86C18.2149 80.6187 18.6535 79.4102 19.2009 78.25C20.2843 75.9043 21.7777 73.7708 23.6109 71.95C24.5332 71.0276 25.5373 70.1909 26.6109 69.45C28.7319 67.956 31.1024 66.852 33.6109 66.19C34.8498 65.865 36.1145 65.6476 37.3909 65.54C38.6848 65.4199 39.987 65.4199 41.2809 65.54C43.8574 65.7561 46.374 66.4336 48.7109 67.54C49.873 68.0827 50.9841 68.7287 52.0309 69.47C53.1025 70.2134 54.1064 71.05 55.0309 71.97C56.8582 73.7957 58.3509 75.9281 59.4409 78.27C59.9882 79.4302 60.4268 80.6387 60.7509 81.88C61.0913 83.1334 61.3156 84.4154 61.4209 85.71C61.4909 86.29 61.5209 86.92 61.5209 87.6Z" fill="#FB9129"/>
<path d="M50.5598 87.6L61.4298 89.51C61.3253 90.8079 61.101 92.0934 60.7598 93.35L49.8798 91.43L59.4498 96.96C58.9037 98.132 58.2545 99.2531 57.5098 100.31L47.9398 94.79L55.0398 103.26C54.1151 104.177 53.1112 105.01 52.0398 105.75L44.9398 97.29L48.7198 107.68C47.544 108.228 46.3227 108.674 45.0698 109.01L41.3098 98.6V109.6C40.6431 109.66 39.9931 109.69 39.3598 109.69C38.7098 109.69 38.0598 109.69 37.4198 109.6V98.6L33.6398 108.99C32.3859 108.656 31.1644 108.211 29.9898 107.66L33.7698 97.27L26.6698 105.73C25.5964 104.993 24.5923 104.159 23.6698 103.24L30.7798 94.77L21.1998 100.3C20.4571 99.2383 19.808 98.114 19.2598 96.94L28.8298 91.41L17.9498 93.33C17.6094 92.0766 17.3851 90.7945 17.2798 89.5L28.1398 87.6L17.2598 85.68C17.3651 84.3888 17.5894 83.11 17.9298 81.86L28.8098 83.78L19.2398 78.25C19.7879 77.0728 20.437 75.9452 21.1798 74.88L30.7598 80.41L23.6498 71.95C24.5721 71.0277 25.5762 70.1909 26.6498 69.45L33.7498 77.91L29.9698 67.52C31.1444 66.9688 32.3659 66.5237 33.6198 66.19L37.4198 76.6V65.6C38.7137 65.48 40.0159 65.48 41.3098 65.6V76.6L45.1398 66.16C46.3927 66.4965 47.614 66.9415 48.7898 67.49L45.0098 77.88L52.1098 69.42C53.1814 70.1635 54.1853 71.0001 55.1098 71.92L48.0098 80.38L57.5798 74.86C58.3246 75.9204 58.9738 77.0448 59.5198 78.22L49.9498 83.75L60.8298 81.83C61.1702 83.0834 61.3944 84.3655 61.4998 85.66L50.5598 87.6Z" fill="#FBD34C"/>
<path d="M39.3705 105.21C49.1128 105.21 57.0105 97.3122 57.0105 87.5699C57.0105 77.8276 49.1128 69.9299 39.3705 69.9299C29.6282 69.9299 21.7305 77.8276 21.7305 87.5699C21.7305 97.3122 29.6282 105.21 39.3705 105.21Z" fill="#FB9129"/>
<path d="M54.5954 91.1564C56.5821 82.7389 51.3689 74.3046 42.9514 72.3179C34.5339 70.3312 26.0996 75.5444 24.1129 83.9619C22.1262 92.3794 27.3394 100.814 35.7569 102.8C44.1744 104.787 52.6086 99.5739 54.5954 91.1564Z" fill="#EFBC16"/>
<path d="M39.3709 91.05L47.3509 86.16L39.3709 74.54L31.3809 86.16L39.3709 91.05Z" fill="white"/>
<path d="M39.3709 93.41L32.2109 89.02L39.3709 99.43L46.5209 89.02L39.3709 93.41Z" fill="white"/>
<path opacity="0.25" d="M39.3709 74.54V91.05L31.3809 86.16L39.3709 74.54Z" fill="#FBD34C"/>
<path opacity="0.25" d="M39.3709 93.41V99.43L32.2109 89.02L39.3709 93.41Z" fill="#FBD34C"/>
<defs>
<linearGradient id="paint0_linear_2_12893" x1="39.3703" y1="0" x2="39.3703" y2="37.3" gradientUnits="userSpaceOnUse">
<stop stop-color="#6564DB"/>
<stop offset="1" stop-color="#55DDE0"/>
</linearGradient>
<linearGradient id="paint1_linear_2_12893" x1="39.3706" y1="0" x2="39.3706" y2="37.3" gradientUnits="userSpaceOnUse">
<stop stop-color="#6564DB"/>
<stop offset="1" stop-color="#55DDE0"/>
</linearGradient>
</defs>
</svg>
