<svg width="97" height="144" viewBox="0 0 97 144" fill="none" xmlns="http://www.w3.org/2000/svg">
<path d="M94.9797 47.0499C94.9797 34.7439 90.0911 22.9418 81.3894 14.2401C72.6877 5.53846 60.8857 0.649902 48.5797 0.649902C36.2736 0.649902 24.4716 5.53846 15.7699 14.2401C7.06824 22.9418 2.17969 34.7439 2.17969 47.0499H94.9797Z" fill="url(#paint0_linear_2_12892)"/>
<path d="M79.4397 47.0499C79.4397 21.4199 65.6197 0.649902 48.5797 0.649902C31.5397 0.649902 17.7197 21.4199 17.7197 47.0499H79.4397Z" fill="#6564DB"/>
<path d="M60.3802 47.0499C60.3802 21.4199 55.0903 0.649902 48.5803 0.649902C42.0703 0.649902 36.7803 21.4199 36.7803 47.0499H60.3802Z" fill="url(#paint1_linear_2_12892)"/>
<path d="M48.5797 53.8797C74.2057 53.8797 94.9797 50.8218 94.9797 47.0497C94.9797 43.2776 74.2057 40.2197 48.5797 40.2197C22.9537 40.2197 2.17969 43.2776 2.17969 47.0497C2.17969 50.8218 22.9537 53.8797 48.5797 53.8797Z" fill="#6564DB"/>
<g style="mix-blend-mode:multiply" opacity="0.5">
<path d="M94.9906 47.0597C94.9906 49.0597 88.8506 50.9397 79.1406 52.1897C73.8006 52.8797 67.3706 53.3897 60.2906 53.6697C56.5606 53.7997 52.6306 53.8797 48.5806 53.8797C44.5306 53.8797 40.5806 53.7997 36.8606 53.6597C29.7806 53.3897 23.3606 52.8797 18.0206 52.1897C8.32063 50.9397 2.14062 49.0997 2.14062 47.0597C2.14062 45.0197 8.81061 43.0597 19.2506 41.7497C24.4906 41.1197 30.6706 40.6497 37.4306 40.4097C40.9906 40.2897 44.7106 40.2197 48.5406 40.2197C52.3706 40.2197 56.0906 40.2897 59.6406 40.4097C66.4206 40.6497 72.6406 41.1197 77.8306 41.7497C88.3106 43.0097 94.9906 44.9097 94.9906 47.0597Z" fill="#7B8C9D"/>
</g>
<g style="mix-blend-mode:multiply" opacity="0.5">
<path d="M37.4695 40.4097C37.1795 44.6297 36.9695 49.0597 36.8595 53.6597C29.7795 53.3897 23.3595 52.8797 18.0195 52.1897C18.2895 48.5997 18.7095 45.1097 19.2895 41.7497C24.5295 41.1197 30.7095 40.6497 37.4695 40.4097Z" fill="#7B8C9D"/>
<path d="M79.1397 52.1897C73.7997 52.8797 67.3697 53.3897 60.2897 53.6697C60.1897 49.0697 59.9797 44.6697 59.6797 40.4097C66.4597 40.6497 72.6797 41.1197 77.8697 41.7497C78.4497 45.1097 78.8797 48.5997 79.1397 52.1897Z" fill="#7B8C9D"/>
</g>
<path d="M48.5797 87.0398C48.3461 87.0403 48.1196 86.9589 47.9397 86.8098L1.52973 47.8098C1.42919 47.7252 1.34631 47.6215 1.28586 47.5048C1.22541 47.3881 1.18858 47.2607 1.17743 47.1297C1.16629 46.9987 1.18106 46.8669 1.22092 46.7416C1.26077 46.6164 1.32492 46.5003 1.4097 46.3998C1.49435 46.2993 1.59802 46.2164 1.71472 46.156C1.83142 46.0955 1.95889 46.0587 2.08984 46.0475C2.2208 46.0364 2.35267 46.0512 2.47791 46.091C2.60314 46.1309 2.71928 46.195 2.8197 46.2798L48.5797 84.7298L94.3397 46.2898C94.4401 46.205 94.5563 46.1409 94.6815 46.101C94.8068 46.0612 94.9386 46.0464 95.0696 46.0575C95.2005 46.0687 95.328 46.1055 95.4447 46.166C95.5614 46.2264 95.665 46.3093 95.7497 46.4098C95.8345 46.5102 95.8987 46.6264 95.9385 46.7516C95.9784 46.8769 95.9931 47.0087 95.982 47.1397C95.9708 47.2706 95.934 47.3981 95.8735 47.5148C95.8131 47.6315 95.7302 47.7352 95.6297 47.8198L49.2197 86.8198C49.0384 86.9653 48.8121 87.0431 48.5797 87.0398Z" fill="#13304E"/>
<path d="M48.5796 87.0397C48.3525 87.0469 48.1298 86.9766 47.948 86.8402C47.7662 86.7039 47.6363 86.5098 47.5796 86.2897L35.9396 40.6897C35.8945 40.5593 35.877 40.421 35.8879 40.2834C35.8989 40.1459 35.9383 40.0121 36.0035 39.8905C36.0687 39.7688 36.1584 39.662 36.2669 39.5768C36.3754 39.4915 36.5004 39.4296 36.634 39.395C36.7676 39.3604 36.9069 39.3538 37.0431 39.3757C37.1794 39.3975 37.3096 39.4474 37.4257 39.522C37.5418 39.5967 37.6411 39.6945 37.7175 39.8094C37.7939 39.9244 37.8457 40.0538 37.8696 40.1897L48.5796 81.9997L59.2796 39.9997C59.3459 39.7425 59.5117 39.5221 59.7405 39.3871C59.9693 39.2521 60.2423 39.2134 60.4996 39.2797C60.7569 39.3461 60.9773 39.5118 61.1123 39.7406C61.2473 39.9694 61.2859 40.2425 61.2196 40.4997L49.5496 86.3197C49.4929 86.5398 49.363 86.7339 49.1812 86.8702C48.9995 87.0066 48.7767 87.0769 48.5496 87.0697L48.5796 87.0397Z" fill="#13304E"/>
<path d="M2.17996 49.0198C3.26796 49.0198 4.14996 48.1378 4.14996 47.0498C4.14996 45.9618 3.26796 45.0798 2.17996 45.0798C1.09196 45.0798 0.209961 45.9618 0.209961 47.0498C0.209961 48.1378 1.09196 49.0198 2.17996 49.0198Z" fill="#13304E"/>
<path d="M94.9798 49.0198C96.0678 49.0198 96.9498 48.1378 96.9498 47.0498C96.9498 45.9618 96.0678 45.0798 94.9798 45.0798C93.8918 45.0798 93.0098 45.9618 93.0098 47.0498C93.0098 48.1378 93.8918 49.0198 94.9798 49.0198Z" fill="#13304E"/>
<path d="M38.8799 40.2197C38.8799 39.8242 38.7626 39.4375 38.5428 39.1086C38.3231 38.7797 38.0107 38.5233 37.6452 38.372C37.2798 38.2206 36.8777 38.181 36.4897 38.2582C36.1017 38.3353 35.7454 38.5258 35.4656 38.8055C35.1859 39.0852 34.9955 39.4416 34.9183 39.8295C34.8411 40.2175 34.8807 40.6196 35.0321 40.9851C35.1835 41.3505 35.4398 41.6629 35.7687 41.8827C36.0976 42.1024 36.4843 42.2197 36.8799 42.2197C37.4103 42.2197 37.919 42.009 38.2941 41.6339C38.6692 41.2589 38.8799 40.7502 38.8799 40.2197Z" fill="#13304E"/>
<path d="M62.2207 40.2197C62.2207 39.8242 62.1034 39.4375 61.8836 39.1086C61.6639 38.7797 61.3515 38.5233 60.9861 38.372C60.6206 38.2206 60.2185 38.181 59.8305 38.2582C59.4426 38.3353 59.0862 38.5258 58.8065 38.8055C58.5268 39.0852 58.3363 39.4416 58.2591 39.8295C58.182 40.2175 58.2216 40.6196 58.3729 40.9851C58.5243 41.3505 58.7807 41.6629 59.1096 41.8827C59.4385 42.1024 59.8251 42.2197 60.2207 42.2197C60.7511 42.2197 61.2598 42.009 61.6349 41.6339C62.01 41.2589 62.2207 40.7502 62.2207 40.2197Z" fill="#13304E"/>
<path d="M78.9903 113.19C78.9959 114.065 78.9558 114.939 78.8703 115.81C78.7289 117.588 78.4209 119.349 77.9503 121.07C77.5027 122.787 76.9003 124.461 76.1503 126.07C75.4061 127.686 74.5122 129.23 73.4803 130.68C70.9471 134.323 67.6415 137.363 63.7991 139.582C59.9566 141.802 55.6719 143.146 51.2502 143.52C49.4738 143.68 47.6866 143.68 45.9102 143.52C44.1537 143.374 42.4135 143.073 40.7103 142.62C37.288 141.697 34.0529 140.184 31.1503 138.15C28.243 136.116 25.7119 133.592 23.6703 130.69C22.6513 129.228 21.7581 127.682 21.0002 126.07C20.2502 124.461 19.6478 122.787 19.2003 121.07C18.733 119.352 18.4283 117.594 18.2903 115.82C18.2013 114.946 18.1579 114.068 18.1602 113.19C18.1582 112.308 18.2016 111.427 18.2903 110.55C18.4291 108.775 18.7338 107.018 19.2003 105.3C19.6517 103.6 20.2541 101.943 21.0002 100.35C21.7581 98.7371 22.6513 97.1916 23.6703 95.7298C25.7119 92.828 28.243 90.3037 31.1503 88.2698C34.0529 86.2354 37.288 84.7228 40.7103 83.7998C42.4135 83.3463 44.1537 83.0452 45.9102 82.8998C47.6866 82.7398 49.4738 82.7398 51.2502 82.8998C53.0035 83.0452 54.7404 83.3464 56.4402 83.7998C63.3291 85.6687 69.3447 89.8937 73.4402 95.7398C74.4722 97.1898 75.3661 98.7332 76.1103 100.35C76.8564 101.943 77.4588 103.6 77.9102 105.3C78.38 107.021 78.688 108.782 78.8303 110.56C78.9289 111.433 78.9824 112.311 78.9903 113.19Z" fill="#FB9129"/>
<path d="M63.9402 113.19L78.8703 115.81C78.7289 117.588 78.4209 119.349 77.9503 121.07L63.0103 118.44L76.1403 126.03C75.3961 127.646 74.5022 129.19 73.4702 130.64L60.3403 123.06L70.1403 134.68C68.8821 135.943 67.5133 137.091 66.0503 138.11L56.3103 126.49L61.5002 140.75C59.8911 141.507 58.2179 142.119 56.5002 142.58L51.3103 128.32V143.48C49.5339 143.64 47.7466 143.64 45.9702 143.48V128.32L40.7103 142.6C38.991 142.144 37.3173 141.532 35.7103 140.77L40.8903 126.51L31.1403 138.11C29.6792 137.088 28.3106 135.941 27.0503 134.68L36.8103 123.06L23.6602 130.65C22.6413 129.188 21.7481 127.642 20.9903 126.03L34.1403 118.44L19.1902 121.07C18.723 119.352 18.4184 117.594 18.2803 115.82L33.2103 113.19L18.2903 110.6C18.4291 108.825 18.7338 107.068 19.2003 105.35L34.1403 107.94L20.9903 100.35C21.7481 98.7371 22.6413 97.1916 23.6602 95.7298L36.8103 103.32L27.0503 91.6998C28.3106 90.439 29.6792 89.2912 31.1403 88.2698L40.8802 99.8898L35.7103 85.5998C37.3173 84.8378 38.991 84.2252 40.7103 83.7698L45.9102 98.0298V82.8998C47.6867 82.7398 49.4738 82.7398 51.2502 82.8998V98.0598L56.4402 83.7998C58.1579 84.2604 59.8311 84.8728 61.4402 85.6298L56.2502 99.8898L65.9903 88.2698C67.4741 89.2858 68.8631 90.4338 70.1403 91.6998L60.4003 103.32L73.5303 95.7398C74.5622 97.1898 75.4561 98.7332 76.2003 100.35L63.0603 107.94L78.0002 105.3C78.47 107.021 78.778 108.782 78.9203 110.56L63.9402 113.19Z" fill="#FBD34C"/>
<path d="M48.5801 137.4C61.9509 137.4 72.7901 126.561 72.7901 113.19C72.7901 99.8192 61.9509 88.98 48.5801 88.98C35.2093 88.98 24.3701 99.8192 24.3701 113.19C24.3701 126.561 35.2093 137.4 48.5801 137.4Z" fill="#FB9129"/>
<path d="M63.7756 128.386C72.168 119.994 72.168 106.387 63.7756 97.9947C55.3833 89.6023 41.7766 89.6023 33.3842 97.9947C24.9918 106.387 24.9918 119.994 33.3842 128.386C41.7766 136.779 55.3833 136.779 63.7756 128.386Z" fill="#EFBC16"/>
<path d="M57.8703 116.83C57.7217 116.327 57.5135 115.843 57.2503 115.39C56.9771 114.937 56.6403 114.527 56.2503 114.17C55.8534 113.815 55.4172 113.506 54.9503 113.25C54.4629 112.993 53.9408 112.807 53.4003 112.7V112.56C54.0941 112.257 54.7328 111.842 55.2903 111.33C55.8543 110.813 56.3128 110.191 56.6403 109.5C56.9788 108.809 57.1534 108.049 57.1503 107.28C57.1806 106.446 57.0269 105.616 56.7002 104.849C56.3736 104.082 55.882 103.396 55.2603 102.84C54.6265 102.305 53.8871 101.91 53.0903 101.68V99.2498C53.0903 99.1331 53.044 99.0212 52.9614 98.9387C52.8789 98.8562 52.767 98.8098 52.6503 98.8098H49.7403C49.6236 98.8098 49.5117 98.8562 49.4292 98.9387C49.3467 99.0212 49.3003 99.1331 49.3003 99.2498V101.15H46.7603V99.2598C46.7603 99.1431 46.7139 99.0312 46.6314 98.9487C46.5489 98.8662 46.437 98.8198 46.3203 98.8198H43.4403C43.3236 98.8198 43.2117 98.8662 43.1292 98.9487C43.0466 99.0312 43.0003 99.1431 43.0003 99.2598V101.15H42.0603C41.8716 101.123 41.6792 101.141 41.4984 101.201C41.3176 101.262 41.1533 101.363 41.0185 101.498C40.8837 101.633 40.7821 101.797 40.7216 101.978C40.6612 102.159 40.6436 102.351 40.6703 102.54V124.06C40.6436 124.249 40.6612 124.441 40.7216 124.622C40.7821 124.803 40.8837 124.967 41.0185 125.102C41.1533 125.236 41.3176 125.338 41.4984 125.398C41.6792 125.459 41.8716 125.476 42.0603 125.45H43.0003V127.14C43.0003 127.256 43.0466 127.368 43.1292 127.451C43.2117 127.533 43.3236 127.58 43.4403 127.58H46.3203C46.437 127.58 46.5489 127.533 46.6314 127.451C46.7139 127.368 46.7603 127.256 46.7603 127.14V125.45H49.3003V127.14C49.3003 127.256 49.3467 127.368 49.4292 127.451C49.5117 127.533 49.6236 127.58 49.7403 127.58H52.6303C52.747 127.58 52.8589 127.533 52.9414 127.451C53.0239 127.368 53.0703 127.256 53.0703 127.14V125.03C54.1294 124.783 55.1181 124.298 55.9603 123.61C56.6849 122.957 57.2535 122.151 57.6239 121.249C57.9944 120.347 58.1572 119.373 58.1003 118.4C58.0998 117.868 58.0223 117.339 57.8703 116.83ZM51.7803 120.16C51.1112 120.687 50.2702 120.947 49.4203 120.89H46.0203V115.37H48.8703C49.8415 115.307 50.8084 115.545 51.6403 116.05C51.964 116.27 52.2259 116.569 52.401 116.919C52.5761 117.27 52.6585 117.659 52.6403 118.05C52.6658 118.444 52.6017 118.838 52.4527 119.204C52.3037 119.569 52.0739 119.896 51.7803 120.16ZM50.8603 106.29C51.1292 106.53 51.3394 106.83 51.4746 107.164C51.6098 107.499 51.6665 107.86 51.6403 108.22C51.6425 108.568 51.5696 108.913 51.4263 109.23C51.2831 109.548 51.0729 109.831 50.8103 110.06C50.136 110.609 49.2778 110.881 48.4103 110.82H46.0203V105.65H48.4803C49.3236 105.583 50.1641 105.809 50.8603 106.29Z" fill="white"/>
<defs>
<linearGradient id="paint0_linear_2_12892" x1="48.5797" y1="0.649902" x2="48.5797" y2="47.0499" gradientUnits="userSpaceOnUse">
<stop stop-color="#6564DB"/>
<stop offset="1" stop-color="#55DDE0"/>
</linearGradient>
<linearGradient id="paint1_linear_2_12892" x1="48.5803" y1="0.649902" x2="48.5803" y2="47.0499" gradientUnits="userSpaceOnUse">
<stop stop-color="#6564DB"/>
<stop offset="1" stop-color="#55DDE0"/>
</linearGradient>
</defs>
</svg>
