<svg width="60" height="35" viewBox="0 0 60 35" fill="none" xmlns="http://www.w3.org/2000/svg">
<path opacity="0.1" d="M10.9996 20.2914C10.3898 18.2079 10.2349 16.0175 10.5454 13.8689C10.8559 11.7202 11.6246 9.66336 12.7993 7.83768C13.9741 6.012 15.5276 4.46014 17.3544 3.2872C19.1813 2.11427 21.2389 1.34767 23.3879 1.03932C25.5369 0.730983 27.727 0.888105 29.81 1.50005C31.8929 2.11199 33.8201 3.16445 35.4608 4.58615C37.1015 6.00785 38.4175 7.76558 39.3196 9.74025C40.2218 11.7149 40.689 13.8604 40.6896 16.0314C40.6896 16.4114 40.6896 16.7714 40.6396 17.1414C43.0619 16.0672 45.7534 15.7546 48.3574 16.245C50.9613 16.7354 53.3547 18.0057 55.2202 19.8875C57.0858 21.7693 58.3352 24.1736 58.803 26.7818C59.2708 29.3899 58.9348 32.0786 57.8396 34.4914H0.8396C0.518204 33.4345 0.353133 32.3362 0.349609 31.2314C0.3637 28.3841 1.48135 25.6531 3.46753 23.6129C5.45371 21.5726 8.15366 20.382 10.9996 20.2914Z" fill="#7B8C9D"/>
</svg>
