<svg width="87" height="50" viewBox="0 0 87 50" fill="none" xmlns="http://www.w3.org/2000/svg">
<path opacity="0.1" d="M70.8402 28.4914C71.7326 25.4309 71.9573 22.2144 71.4989 19.0595C71.0405 15.9047 69.9099 12.8851 68.1834 10.2051C66.457 7.52505 64.175 5.24712 61.492 3.52542C58.8089 1.80372 55.7873 0.678419 52.6317 0.225649C49.476 -0.227122 46.2599 0.0032078 43.201 0.90105C40.1421 1.79889 37.3117 3.3433 34.9013 5.42978C32.491 7.51626 30.5569 10.0961 29.23 12.9948C27.9031 15.8935 27.2143 19.0434 27.2102 22.2314C27.2102 22.7914 27.2602 23.3314 27.3002 23.8714C24.8655 22.7959 22.2319 22.244 19.5702 22.2514C16.3579 22.2499 13.1966 23.054 10.3754 24.5901C7.55418 26.1263 5.16324 28.3453 3.4213 31.0443C1.67936 33.7432 0.642051 36.8359 0.404269 40.0394C0.166487 43.2429 0.735823 46.4548 2.0602 49.3814H85.7902C86.5338 47.0049 86.7158 44.4883 86.3216 42.0296C85.9275 39.5709 84.9681 37.2372 83.519 35.2123C82.0698 33.1873 80.1704 31.5264 77.9703 30.3601C75.7702 29.1939 73.3295 28.5542 70.8402 28.4914Z" fill="#7B8C9D"/>
</svg>
