<svg width="21" height="20" viewBox="0 0 21 20" fill="none" xmlns="http://www.w3.org/2000/svg">
<path d="M13.9577 10.7498V14.2498C13.9577 17.1665 12.791 18.3332 9.87435 18.3332H6.37435C3.45768 18.3332 2.29102 17.1665 2.29102 14.2498V10.7498C2.29102 7.83317 3.45768 6.6665 6.37435 6.6665H9.87435C12.791 6.6665 13.9577 7.83317 13.9577 10.7498Z" stroke="#6564DB" stroke-width="1.5" stroke-linecap="round" stroke-linejoin="round"/>
<path d="M18.9577 5.74984V9.24984C18.9577 12.1665 17.791 13.3332 14.8744 13.3332H13.9577V10.7498C13.9577 7.83317 12.791 6.6665 9.87435 6.6665H7.29102V5.74984C7.29102 2.83317 8.45768 1.6665 11.3743 1.6665H14.8744C17.791 1.6665 18.9577 2.83317 18.9577 5.74984Z" stroke="#6564DB" stroke-width="1.5" stroke-linecap="round" stroke-linejoin="round"/>
</svg>
