<svg width="81" height="82" viewBox="0 0 81 82" fill="none" xmlns="http://www.w3.org/2000/svg">
<path d="M40.5 0.78125C51.233 0.78125 61.5264 5.04491 69.1157 12.6343C76.7051 20.2236 80.9688 30.517 80.9688 41.25C80.9688 51.983 76.7051 62.2764 69.1157 69.8657C61.5264 77.4551 51.233 81.7188 40.5 81.7188C29.767 81.7188 19.4736 77.4551 11.8843 69.8657C4.29491 62.2764 0.03125 51.983 0.03125 41.25C0.03125 30.517 4.29491 20.2236 11.8843 12.6343C19.4736 5.04491 29.767 0.78125 40.5 0.78125ZM35.4587 49.2339L26.4689 40.2383C26.1466 39.916 25.764 39.6604 25.3429 39.4859C24.9219 39.3115 24.4705 39.2217 24.0148 39.2217C23.559 39.2217 23.1077 39.3115 22.6866 39.4859C22.2655 39.6604 21.8829 39.916 21.5606 40.2383C20.9097 40.8892 20.5441 41.7719 20.5441 42.6924C20.5441 43.6129 20.9097 44.4957 21.5606 45.1466L33.0075 56.5934C33.3289 56.9173 33.7112 57.1744 34.1324 57.3498C34.5536 57.5253 35.0054 57.6156 35.4616 57.6156C35.9179 57.6156 36.3697 57.5253 36.7909 57.3498C37.2121 57.1744 37.5944 56.9173 37.9158 56.5934L61.6189 32.8845C61.9455 32.5636 62.2053 32.1812 62.3834 31.7593C62.5614 31.3374 62.6542 30.8845 62.6563 30.4266C62.6584 29.9687 62.5699 29.5149 62.3958 29.0914C62.2216 28.668 61.9654 28.2831 61.6418 27.9592C61.3182 27.6352 60.9337 27.3785 60.5104 27.2039C60.0871 27.0292 59.6334 26.9402 59.1755 26.9418C58.7177 26.9433 58.2646 27.0356 57.8425 27.2131C57.4205 27.3907 57.0377 27.65 56.7164 27.9762L35.4587 49.2339Z" fill="#258750"/>
</svg>
