<svg width="83" height="83" viewBox="0 0 83 83" fill="none" xmlns="http://www.w3.org/2000/svg">
<path d="M82.0404 41.18C82.0474 42.3586 81.994 43.5368 81.8804 44.71C81.6869 47.1025 81.2752 49.4724 80.6504 51.79C80.0397 54.0809 79.2264 56.313 78.2204 58.4599C77.2168 60.6326 76.0151 62.708 74.6304 64.66C73.2697 66.6011 71.7441 68.4212 70.0704 70.1C68.3767 71.7999 66.5325 73.3429 64.5604 74.7099C62.6319 76.0786 60.5835 77.2702 58.4404 78.27C56.267 79.2867 54.0083 80.1098 51.6904 80.73C49.3994 81.3487 47.0561 81.7538 44.6904 81.9399C42.3024 82.1666 39.8983 82.1666 37.5104 81.9399C35.1447 81.7538 32.8013 81.3487 30.5104 80.73C23.565 78.8487 17.2323 75.1841 12.1404 70.1C10.4656 68.4266 8.93673 66.6133 7.57036 64.6799C6.20067 62.7114 4.99974 60.6307 3.98037 58.4599C2.97429 56.313 2.16109 54.0809 1.55037 51.79C0.924075 49.4765 0.515627 47.1095 0.330372 44.7199C0.103418 42.3621 0.103418 39.9878 0.330372 37.63C0.514787 35.2436 0.923254 32.8798 1.55037 30.57C2.15761 28.2779 2.97091 26.0455 3.98037 23.9C5.99328 19.5665 8.75571 15.6226 12.1404 12.2499C17.2229 7.13894 23.5678 3.46448 30.5304 1.59995C32.8221 0.982699 35.165 0.574362 37.5304 0.379952C39.919 0.166644 42.3218 0.166644 44.7104 0.379952C47.0758 0.574362 49.4187 0.982699 51.7104 1.59995C58.6575 3.47852 64.9934 7.13939 70.0904 12.2199C71.7617 13.9008 73.2872 15.7207 74.6504 17.66C78.8056 23.5617 81.3086 30.4665 81.9004 37.66C82.0075 38.8301 82.0542 40.005 82.0404 41.18Z" fill="#FB9129"/>
<path d="M61.7906 41.18L81.8806 44.71C81.6871 47.1025 81.2754 49.4724 80.6506 51.79L60.5306 48.24L78.2206 58.46C77.217 60.6326 76.0153 62.7081 74.6306 64.66L56.9506 54.46L70.0706 70.1C68.3769 71.7999 66.5328 73.3429 64.5606 74.71L51.4506 59.08L58.4506 78.27C56.2772 79.2867 54.0185 80.1099 51.7006 80.73L44.7006 61.54V81.94C42.3126 82.1666 39.9086 82.1666 37.5206 81.94V61.54L30.5206 80.73C28.2064 80.1188 25.9535 79.2953 23.7906 78.27L30.7906 59.08L17.6806 74.71C15.7097 73.3453 13.8686 71.8022 12.1806 70.1L25.3006 54.46L7.6106 64.68C6.2409 62.7114 5.03997 60.6307 4.0206 58.46L21.7106 48.24L1.59061 51.79C0.964308 49.4765 0.55586 47.1095 0.370605 44.72L20.4706 41.18L0.350586 37.6C0.535 35.2136 0.943467 32.8499 1.57059 30.54L21.6906 34.08L4.00058 23.9C5.01777 21.7281 6.21884 19.6472 7.59061 17.68L25.2806 27.9L12.1406 12.25C13.8312 10.5506 15.672 9.00767 17.6406 7.63998L30.7506 23.27L23.7506 4.07998C25.9155 3.06226 28.168 2.24227 30.4806 1.62998L37.4806 20.82V0.409981C39.8692 0.196673 42.272 0.196673 44.6606 0.409981V20.82L51.6606 1.62998C53.9782 2.24672 56.2369 3.06656 58.4106 4.07998L51.4106 23.27L64.5606 7.59998C66.5304 8.9701 68.3744 10.5129 70.0706 12.21L56.9506 27.9L74.6306 17.69C76.0155 19.6453 77.2172 21.7241 78.2206 23.9L60.5306 34.11L80.6506 30.6C81.2762 32.9174 81.6879 35.2873 81.8806 37.68L61.7906 41.18Z" fill="#FBD34C"/>
<path d="M41.1112 73.7599C59.1047 73.7599 73.6912 59.1733 73.6912 41.1799C73.6912 23.1864 59.1047 8.59985 41.1112 8.59985C23.1178 8.59985 8.53125 23.1864 8.53125 41.1799C8.53125 59.1733 23.1178 73.7599 41.1112 73.7599Z" fill="#FB9129"/>
<path d="M41.1107 70.11C57.0883 70.11 70.0406 57.1576 70.0406 41.18C70.0406 25.2024 57.0883 12.25 41.1107 12.25C25.1331 12.25 12.1807 25.2024 12.1807 41.18C12.1807 57.1576 25.1331 70.11 41.1107 70.11Z" fill="#EFBC16"/>
<path d="M40.9106 47.51L55.6606 38.46L40.9006 17L26.1406 38.46L40.9106 47.51Z" fill="white"/>
<path d="M41.1209 51.9499L27.8809 43.8499L41.1109 63.0799L54.3409 43.8499L41.1209 51.9499Z" fill="white"/>
<path opacity="0.25" d="M40.9006 17L40.9106 47.51L26.1406 38.46L40.9006 17Z" fill="#FBD34C"/>
</svg>
