<svg width="463" height="345" viewBox="0 0 463 345" fill="none" xmlns="http://www.w3.org/2000/svg">
<path d="M114.69 204.61H95.2598V283.83H114.69V204.61Z" fill="#EFBC16"/>
<g style="mix-blend-mode:multiply" opacity="0.2">
<path d="M78.08 291.39C121.202 291.39 156.16 288.005 156.16 283.83C156.16 279.655 121.202 276.27 78.08 276.27C34.9576 276.27 0 279.655 0 283.83C0 288.005 34.9576 291.39 78.08 291.39Z" fill="#C940BC"/>
</g>
<path d="M20.3105 187.18H135.861V277.74C135.861 279.352 135.22 280.899 134.08 282.039C132.94 283.179 131.393 283.82 129.781 283.82H26.2105C24.6458 283.82 23.1451 283.198 22.0386 282.092C20.9322 280.985 20.3105 279.485 20.3105 277.92V187.18Z" fill="#6564DB"/>
<path d="M62.2503 204.61H42.8203V283.83H62.2503V204.61Z" fill="#EFBC16"/>
<g style="mix-blend-mode:multiply" opacity="0.5">
<path d="M135.861 187.18H20.3105V213.41H135.861V187.18Z" fill="#7B8C9D"/>
</g>
<path d="M142.41 181.23H13.75V204.66H142.41V181.23Z" fill="#6564DB"/>
<g style="mix-blend-mode:multiply" opacity="0.2">
<path d="M384.2 291.39C427.322 291.39 462.28 288.005 462.28 283.83C462.28 279.655 427.322 276.27 384.2 276.27C341.078 276.27 306.12 279.655 306.12 283.83C306.12 288.005 341.078 291.39 384.2 291.39Z" fill="#C940BC"/>
</g>
<path d="M326.43 215.18H441.98V277.74C441.98 279.352 441.339 280.899 440.199 282.039C439.059 283.179 437.512 283.82 435.9 283.82H332.33C330.765 283.82 329.264 283.198 328.158 282.092C327.051 280.985 326.43 279.485 326.43 277.92V215.18Z" fill="#6564DB"/>
<path d="M448.53 209.23H319.87V232.66H448.53V209.23Z" fill="#6564DB"/>
<path d="M399.81 209.23H380.38V283.83H399.81V209.23Z" fill="#EFBC16"/>
<g style="mix-blend-mode:multiply" opacity="0.5">
<path d="M441.98 232.65H326.43V241.4H441.98V232.65Z" fill="#7B8C9D"/>
</g>
<path d="M240.02 122.78H215.97C215.131 122.78 214.45 123.46 214.45 124.3V124.5C214.45 125.339 215.131 126.02 215.97 126.02H240.02C240.86 126.02 241.54 125.339 241.54 124.5V124.3C241.54 123.46 240.86 122.78 240.02 122.78Z" fill="url(#paint0_linear_2_12899)"/>
<path d="M247.84 124.4C247.84 124.036 247.732 123.68 247.53 123.378C247.328 123.075 247.041 122.839 246.704 122.7C246.368 122.561 245.998 122.524 245.641 122.595C245.284 122.666 244.956 122.841 244.699 123.099C244.442 123.356 244.267 123.684 244.196 124.041C244.125 124.398 244.161 124.768 244.3 125.104C244.439 125.44 244.675 125.728 244.978 125.93C245.28 126.132 245.636 126.24 246 126.24C246.242 126.241 246.482 126.194 246.706 126.102C246.93 126.01 247.133 125.875 247.304 125.704C247.475 125.533 247.611 125.329 247.703 125.106C247.795 124.882 247.841 124.642 247.84 124.4Z" fill="url(#paint1_linear_2_12899)"/>
<path d="M98.36 323.62C100.216 323.62 101.72 322.116 101.72 320.26C101.72 318.404 100.216 316.9 98.36 316.9C96.5043 316.9 95 318.404 95 320.26C95 322.116 96.5043 323.62 98.36 323.62Z" fill="#EFBC16"/>
<path d="M119.07 320.26C119.072 319.593 118.876 318.94 118.506 318.384C118.137 317.828 117.611 317.395 116.994 317.138C116.378 316.882 115.7 316.814 115.045 316.944C114.39 317.074 113.789 317.395 113.317 317.867C112.845 318.339 112.524 318.94 112.394 319.595C112.265 320.25 112.332 320.928 112.589 321.544C112.845 322.16 113.278 322.687 113.834 323.056C114.39 323.426 115.043 323.622 115.71 323.62C116.6 323.617 117.453 323.262 118.083 322.633C118.713 322.003 119.067 321.15 119.07 320.26Z" fill="#EFBC16"/>
<path d="M133.06 323.62C134.916 323.62 136.42 322.116 136.42 320.26C136.42 318.404 134.916 316.9 133.06 316.9C131.205 316.9 129.7 318.404 129.7 320.26C129.7 322.116 131.205 323.62 133.06 323.62Z" fill="#EFBC16"/>
<g style="mix-blend-mode:multiply" opacity="0.2">
<path d="M231.139 344.61C340.923 344.61 429.919 337.357 429.919 328.41C429.919 319.463 340.923 312.21 231.139 312.21C121.356 312.21 32.3594 319.463 32.3594 328.41C32.3594 337.357 121.356 344.61 231.139 344.61Z" fill="#C940BC"/>
</g>
<path d="M346.589 292.42H115.709V320.25H346.589V292.42Z" fill="#6564DB"/>
<path d="M358.449 119.15H103.839C97.6425 119.15 92.6191 124.173 92.6191 130.37V292.42C92.6191 298.617 97.6425 303.64 103.839 303.64H358.449C364.646 303.64 369.669 298.617 369.669 292.42V130.37C369.669 124.173 364.646 119.15 358.449 119.15Z" fill="#13304E"/>
<path d="M354.849 129.61H107.429C104.883 129.61 102.819 131.674 102.819 134.22V288.59C102.819 291.136 104.883 293.2 107.429 293.2H354.849C357.395 293.2 359.459 291.136 359.459 288.59V134.22C359.459 131.674 357.395 129.61 354.849 129.61Z" fill="url(#paint2_linear_2_12899)"/>
<path d="M136.17 258.14H121.94C120.299 258.14 118.97 259.47 118.97 261.11V275.34C118.97 276.98 120.299 278.31 121.94 278.31H136.17C137.81 278.31 139.14 276.98 139.14 275.34V261.11C139.14 259.47 137.81 258.14 136.17 258.14Z" fill="#6564DB"/>
<path d="M136.17 233.35H121.94C120.299 233.35 118.97 234.68 118.97 236.32V250.55C118.97 252.19 120.299 253.52 121.94 253.52H136.17C137.81 253.52 139.14 252.19 139.14 250.55V236.32C139.14 234.68 137.81 233.35 136.17 233.35Z" fill="#6564DB"/>
<path d="M340.349 258.14H326.119C324.479 258.14 323.149 259.47 323.149 261.11V275.34C323.149 276.98 324.479 278.31 326.119 278.31H340.349C341.99 278.31 343.319 276.98 343.319 275.34V261.11C343.319 259.47 341.99 258.14 340.349 258.14Z" fill="#6564DB"/>
<path d="M340.349 233.35H326.119C324.479 233.35 323.149 234.68 323.149 236.32V250.55C323.149 252.19 324.479 253.52 326.119 253.52H340.349C341.99 253.52 343.319 252.19 343.319 250.55V236.32C343.319 234.68 341.99 233.35 340.349 233.35Z" fill="#6564DB"/>
<path d="M322.24 178.88C322.24 178.089 322.006 177.315 321.566 176.658C321.127 176 320.502 175.487 319.771 175.184C319.04 174.882 318.236 174.802 317.46 174.957C316.684 175.111 315.971 175.492 315.412 176.051C314.852 176.611 314.471 177.324 314.317 178.1C314.163 178.875 314.242 179.68 314.545 180.411C314.847 181.142 315.36 181.766 316.018 182.206C316.676 182.645 317.449 182.88 318.24 182.88C319.301 182.88 320.319 182.458 321.069 181.708C321.819 180.958 322.24 179.941 322.24 178.88Z" fill="#6564DB"/>
<path d="M337.219 172.2C337.219 171.409 336.984 170.635 336.545 169.977C336.105 169.32 335.48 168.807 334.749 168.504C334.019 168.201 333.214 168.122 332.438 168.277C331.662 168.431 330.95 168.812 330.39 169.371C329.831 169.931 329.45 170.643 329.296 171.419C329.141 172.195 329.22 173 329.523 173.73C329.826 174.461 330.339 175.086 330.996 175.526C331.654 175.965 332.428 176.2 333.219 176.2C334.28 176.2 335.297 175.778 336.047 175.028C336.797 174.278 337.219 173.261 337.219 172.2Z" fill="#6564DB"/>
<path d="M351.91 199.36C351.91 198.569 351.676 197.795 351.236 197.138C350.797 196.48 350.172 195.967 349.441 195.664C348.71 195.362 347.906 195.282 347.13 195.437C346.354 195.591 345.641 195.972 345.082 196.531C344.522 197.091 344.141 197.804 343.987 198.58C343.833 199.355 343.912 200.16 344.215 200.891C344.517 201.622 345.03 202.246 345.688 202.686C346.346 203.125 347.119 203.36 347.91 203.36C348.971 203.36 349.988 202.938 350.739 202.188C351.489 201.438 351.91 200.421 351.91 199.36Z" fill="#6564DB"/>
<path d="M327.95 245.38C327.818 245.377 327.693 245.324 327.599 245.231C327.506 245.137 327.453 245.012 327.45 244.88V179.38H318.25C318.117 179.38 317.99 179.327 317.896 179.233C317.803 179.14 317.75 179.012 317.75 178.88C317.75 178.747 317.803 178.62 317.896 178.526C317.99 178.433 318.117 178.38 318.25 178.38H327.95C328.083 178.38 328.21 178.433 328.304 178.526C328.397 178.62 328.45 178.747 328.45 178.88V244.88C328.45 245.012 328.397 245.14 328.304 245.233C328.21 245.327 328.083 245.38 327.95 245.38Z" fill="#6564DB"/>
<path d="M333.229 241.67C333.097 241.67 332.97 241.617 332.876 241.523C332.782 241.43 332.729 241.302 332.729 241.17V174.89C332.732 174.758 332.786 174.632 332.879 174.539C332.972 174.446 333.098 174.392 333.229 174.39C333.362 174.39 333.489 174.443 333.583 174.536C333.677 174.63 333.729 174.757 333.729 174.89V241.17C333.729 241.302 333.677 241.43 333.583 241.523C333.489 241.617 333.362 241.67 333.229 241.67Z" fill="#6564DB"/>
<path d="M338.92 241.67C338.787 241.67 338.66 241.617 338.566 241.523C338.473 241.43 338.42 241.302 338.42 241.17V199.36C338.42 199.227 338.473 199.1 338.566 199.006C338.66 198.913 338.787 198.86 338.92 198.86H346.03C346.163 198.86 346.29 198.913 346.383 199.006C346.477 199.1 346.53 199.227 346.53 199.36C346.53 199.492 346.477 199.62 346.383 199.713C346.29 199.807 346.163 199.86 346.03 199.86H339.42V241.17C339.42 241.302 339.367 241.43 339.273 241.523C339.18 241.617 339.053 241.67 338.92 241.67Z" fill="#6564DB"/>
<path d="M390.729 311.54V318.17C390.73 319.825 390.406 321.463 389.774 322.993C389.142 324.522 388.215 325.912 387.046 327.083C385.877 328.253 384.488 329.183 382.96 329.817C381.432 330.452 379.794 330.779 378.139 330.78H84.1391C82.4836 330.78 80.8443 330.454 79.3149 329.82C77.7856 329.186 76.3961 328.257 75.226 327.086C74.0558 325.915 73.1279 324.525 72.4953 322.995C71.8627 321.465 71.5378 319.826 71.5391 318.17V311.54H390.729Z" fill="#13304E"/>
<path opacity="0.7" d="M267.819 311.54C267.819 314.378 266.692 317.099 264.686 319.106C262.679 321.113 259.957 322.24 257.119 322.24H205.139C202.302 322.24 199.58 321.113 197.573 319.106C195.567 317.099 194.439 314.378 194.439 311.54H267.799H267.819Z" fill="url(#paint3_linear_2_12899)"/>
<path d="M169.51 189.9V269.01H290.51C293.753 269.007 296.862 267.718 299.155 265.425C301.448 263.132 302.737 260.023 302.74 256.78V196.71C302.737 193.467 301.448 190.358 299.155 188.065C296.862 185.772 293.753 184.483 290.51 184.48H174.93C173.492 184.48 172.114 185.051 171.097 186.067C170.081 187.084 169.51 188.462 169.51 189.9Z" fill="#13304E"/>
<g style="mix-blend-mode:multiply" opacity="0.5">
<path d="M252.359 184.48V248.89H302.689V196.71C302.687 193.467 301.397 190.358 299.104 188.065C296.811 185.772 293.702 184.483 290.459 184.48H252.359Z" fill="#7B8C9D"/>
</g>
<path d="M213.399 215.21C213.394 216.211 213.441 217.213 213.539 218.21C213.685 220.236 214.02 222.245 214.539 224.21C215.036 226.136 215.706 228.013 216.539 229.82C217.375 231.646 218.38 233.39 219.539 235.03C221.844 238.325 224.711 241.189 228.009 243.49C231.284 245.81 234.949 247.524 238.829 248.55C240.754 249.061 242.722 249.396 244.709 249.55C245.709 249.65 246.709 249.69 247.709 249.69C248.709 249.69 249.709 249.69 250.709 249.55C252.695 249.396 254.663 249.061 256.589 248.55C260.467 247.519 264.131 245.805 267.409 243.49C269.067 242.34 270.617 241.042 272.039 239.61C274.884 236.776 277.207 233.462 278.899 229.82C280.66 226.166 281.757 222.228 282.139 218.19C282.328 216.194 282.328 214.185 282.139 212.19C281.799 208.185 280.757 204.272 279.059 200.63C278.212 198.803 277.208 197.053 276.059 195.4C274.914 193.771 273.629 192.245 272.219 190.84C270.797 189.408 269.247 188.109 267.589 186.96C264.311 184.644 260.647 182.931 256.769 181.9C254.843 181.388 252.875 181.053 250.889 180.9C249.889 180.8 248.889 180.76 247.889 180.76C246.889 180.76 245.889 180.76 244.889 180.9C242.902 181.053 240.934 181.388 239.009 181.9C235.108 182.932 231.426 184.66 228.139 187C224.841 189.301 221.974 192.165 219.669 195.46C218.512 197.101 217.508 198.845 216.669 200.67C215.837 202.477 215.168 204.354 214.669 206.28C214.15 208.244 213.815 210.253 213.669 212.28C213.529 213.251 213.439 214.229 213.399 215.21Z" fill="#FB9129"/>
<path d="M230.439 215.21L213.539 218.21C213.685 220.236 214.02 222.245 214.539 224.21L231.459 221.21L216.579 229.81C217.416 231.636 218.42 233.38 219.579 235.02L234.449 226.44L223.449 239.6C224.873 241.029 226.423 242.328 228.079 243.48L239.079 230.33L233.199 246.48C235.025 247.331 236.923 248.02 238.869 248.54L244.749 232.4V249.5C245.749 249.6 246.749 249.64 247.749 249.64C248.749 249.64 249.749 249.64 250.749 249.5V232.34L256.629 248.48C258.574 247.964 260.468 247.275 262.289 246.42L256.419 230.27L267.419 243.42C269.078 242.271 270.627 240.972 272.049 239.54L261.049 226.38L275.929 234.98C277.081 233.328 278.084 231.578 278.929 229.75L264.139 221.15L281.059 224.15C281.579 222.185 281.914 220.177 282.059 218.15L265.149 215.15L282.059 212.15C281.91 210.14 281.576 208.148 281.059 206.2L264.139 209.2L279.019 200.6C278.172 198.773 277.168 197.023 276.019 195.37L261.139 204.04L272.139 190.88C270.717 189.448 269.168 188.149 267.509 187L256.509 200.15L262.379 184C260.558 183.145 258.664 182.455 256.719 181.94L250.839 198.08V180.92C249.839 180.82 248.839 180.78 247.839 180.78C246.839 180.78 245.839 180.78 244.839 180.92V198.08L238.959 181.94C237.013 182.46 235.115 183.149 233.289 184L239.139 200.15L228.139 187C226.483 188.152 224.933 189.45 223.509 190.88L234.509 204.04L219.639 195.46C218.482 197.101 217.478 198.845 216.639 200.67L231.519 209.27L214.599 206.27C214.08 208.234 213.745 210.243 213.599 212.27L230.439 215.21Z" fill="#FBD34C"/>
<path d="M247.83 242.62C262.968 242.62 275.24 230.348 275.24 215.21C275.24 200.072 262.968 187.8 247.83 187.8C232.692 187.8 220.42 200.072 220.42 215.21C220.42 230.348 232.692 242.62 247.83 242.62Z" fill="#FB9129"/>
<path d="M247.83 239.54C261.267 239.54 272.16 228.647 272.16 215.21C272.16 201.773 261.267 190.88 247.83 190.88C234.393 190.88 223.5 201.773 223.5 215.21C223.5 228.647 234.393 239.54 247.83 239.54Z" fill="#EFBC16"/>
<path d="M187.59 175.49C187.595 176.532 187.545 177.573 187.44 178.61C187.275 180.729 186.914 182.828 186.36 184.88C185.265 188.96 183.461 192.815 181.03 196.27C177.377 201.46 172.439 205.612 166.7 208.32C164.766 209.217 162.758 209.946 160.7 210.5C158.682 211.044 156.621 211.412 154.54 211.6C152.424 211.8 150.295 211.8 148.18 211.6C143.971 211.252 139.859 210.152 136.04 208.35C134.136 207.471 132.318 206.417 130.61 205.2C128.867 203.989 127.237 202.624 125.74 201.12C124.271 199.638 122.933 198.032 121.74 196.32C120.522 194.579 119.458 192.735 118.56 190.81C117.666 188.912 116.946 186.938 116.41 184.91C115.858 182.864 115.493 180.772 115.32 178.66C115.22 177.66 115.18 176.58 115.18 175.52C115.18 174.46 115.18 173.41 115.32 172.38C115.675 168.167 116.772 164.051 118.56 160.22C119.458 158.298 120.522 156.457 121.74 154.72C122.927 153.004 124.266 151.397 125.74 149.92C128.736 146.938 132.219 144.489 136.04 142.68C137.971 141.78 139.979 141.054 142.04 140.51C144.062 139.964 146.131 139.606 148.22 139.44C150.335 139.24 152.464 139.24 154.58 139.44C156.671 139.606 158.744 139.964 160.77 140.51C162.828 141.06 164.835 141.786 166.77 142.68C168.666 143.572 170.479 144.629 172.19 145.84C177.411 149.49 181.58 154.449 184.28 160.22C185.174 162.121 185.893 164.099 186.43 166.13C186.984 168.178 187.346 170.274 187.51 172.39C187.591 173.421 187.618 174.456 187.59 175.49Z" fill="#FB9129"/>
<path d="M169.669 175.49L187.439 178.6C187.274 180.719 186.913 182.818 186.359 184.87L168.549 181.73L184.209 190.73C183.319 192.653 182.254 194.491 181.029 196.22L165.379 187.22L176.989 201.07C175.49 202.571 173.86 203.937 172.119 205.15L160.509 191.31L166.699 208.31C164.765 209.206 162.758 209.936 160.699 210.49L154.509 193.49V211.6C152.394 211.8 150.264 211.8 148.149 211.6V193.51L141.969 210.51C139.908 209.963 137.9 209.233 135.969 208.33L142.139 191.33L130.539 205.17C128.796 203.959 127.166 202.594 125.669 201.09L137.279 187.24L121.629 196.29C120.411 194.549 119.347 192.705 118.449 190.78L134.109 181.78L116.299 184.92C115.748 182.874 115.383 180.782 115.209 178.67L132.999 175.53L115.209 172.39C115.381 170.278 115.746 168.186 116.299 166.14L134.139 169.24L118.479 160.19C119.377 158.268 120.441 156.427 121.659 154.69L137.309 163.69L125.739 149.89C127.233 148.383 128.864 147.017 130.609 145.81L142.209 159.6L136.039 142.6C137.971 141.7 139.979 140.974 142.039 140.43L148.219 157.43V139.41C150.334 139.21 152.464 139.21 154.579 139.41V157.47L160.769 140.47C162.827 141.02 164.835 141.746 166.769 142.64L160.579 159.64L172.139 145.81C173.882 147.02 175.512 148.385 177.009 149.89L165.399 163.73L181.049 154.73C182.272 156.46 183.336 158.298 184.229 160.22L168.569 169.27L186.379 166.13C186.934 168.178 187.295 170.274 187.459 172.39L169.669 175.49Z" fill="#FBD34C"/>
<path d="M171.763 195.882C183.026 184.62 183.026 166.359 171.763 155.096C160.5 143.834 142.24 143.834 130.977 155.096C119.714 166.359 119.714 184.62 130.977 195.882C142.24 207.145 160.5 207.145 171.763 195.882Z" fill="#FB9129"/>
<path d="M151.37 201.09C165.508 201.09 176.97 189.628 176.97 175.49C176.97 161.351 165.508 149.89 151.37 149.89C137.231 149.89 125.77 161.351 125.77 175.49C125.77 189.628 137.231 201.09 151.37 201.09Z" fill="#EFBC16"/>
<path d="M162.44 179.82C162.262 179.221 162.01 178.646 161.69 178.11C161.374 177.568 160.976 177.079 160.51 176.66C160.04 176.231 159.519 175.862 158.96 175.56C158.381 175.253 157.761 175.03 157.12 174.9V174.74C157.949 174.379 158.713 173.882 159.38 173.27C160.046 172.653 160.592 171.917 160.99 171.1C161.39 170.274 161.595 169.367 161.59 168.45C161.626 167.456 161.442 166.467 161.051 165.552C160.661 164.638 160.073 163.821 159.33 163.16C158.577 162.52 157.698 162.046 156.75 161.77V158.89C156.75 158.752 156.695 158.62 156.597 158.522C156.5 158.425 156.368 158.37 156.23 158.37H152.79C152.652 158.37 152.519 158.425 152.422 158.522C152.324 158.62 152.27 158.752 152.27 158.89V161.14H149.27V158.9C149.27 158.831 149.256 158.762 149.229 158.699C149.202 158.635 149.163 158.577 149.114 158.529C149.064 158.48 149.006 158.442 148.942 158.417C148.877 158.391 148.809 158.379 148.74 158.38H145.24C145.102 158.38 144.969 158.435 144.872 158.532C144.774 158.63 144.72 158.762 144.72 158.9V161.14H143.6C143.375 161.11 143.146 161.132 142.932 161.205C142.717 161.278 142.523 161.4 142.363 161.561C142.203 161.721 142.083 161.917 142.011 162.132C141.939 162.347 141.918 162.575 141.95 162.8V188.43C141.918 188.654 141.939 188.883 142.011 189.098C142.083 189.313 142.203 189.508 142.363 189.669C142.523 189.83 142.717 189.951 142.932 190.024C143.146 190.097 143.375 190.12 143.6 190.09H144.72V192.09C144.72 192.228 144.774 192.36 144.872 192.458C144.969 192.555 145.102 192.61 145.24 192.61H148.67C148.739 192.611 148.807 192.599 148.872 192.573C148.936 192.548 148.994 192.51 149.044 192.461C149.093 192.413 149.132 192.355 149.159 192.291C149.186 192.227 149.2 192.159 149.2 192.09V190.09H152.2V192.09C152.2 192.228 152.254 192.36 152.352 192.458C152.449 192.555 152.582 192.61 152.72 192.61H156.16C156.298 192.61 156.43 192.555 156.527 192.458C156.625 192.36 156.68 192.228 156.68 192.09V189.6C157.947 189.312 159.129 188.729 160.13 187.9C160.993 187.125 161.671 186.165 162.113 185.091C162.554 184.018 162.748 182.859 162.68 181.7C162.691 181.065 162.61 180.432 162.44 179.82ZM155.18 183.82C154.381 184.445 153.381 184.755 152.37 184.69H148.37V178.12H151.76C152.918 178.047 154.072 178.326 155.07 178.92C155.451 179.192 155.757 179.558 155.958 179.981C156.159 180.404 156.249 180.872 156.22 181.34C156.233 181.803 156.143 182.263 155.956 182.687C155.769 183.11 155.49 183.487 155.14 183.79L155.18 183.82ZM154.14 167.27C154.46 167.557 154.711 167.913 154.872 168.312C155.033 168.71 155.101 169.141 155.07 169.57C155.07 169.985 154.981 170.396 154.809 170.774C154.636 171.152 154.384 171.488 154.07 171.76C153.273 172.42 152.252 172.747 151.22 172.67H148.37V166.51H151.3C152.305 166.433 153.307 166.701 154.14 167.27Z" fill="white"/>
<path d="M291.21 279.92H168.67C167.37 279.92 166.124 279.404 165.205 278.485C164.286 277.566 163.77 276.319 163.77 275.02V200.29C163.77 198.99 164.286 197.744 165.205 196.825C166.124 195.906 167.37 195.39 168.67 195.39H291.21C294.252 195.39 297.169 196.598 299.32 198.749C301.471 200.9 302.68 203.818 302.68 206.86V268.44C302.681 269.947 302.385 271.44 301.809 272.832C301.234 274.225 300.389 275.491 299.324 276.557C298.259 277.623 296.994 278.469 295.601 279.046C294.209 279.623 292.717 279.92 291.21 279.92Z" fill="#6564DB"/>
<path d="M172.51 203.6H169.51C169.245 203.6 168.99 203.494 168.803 203.307C168.615 203.119 168.51 202.865 168.51 202.6C168.51 202.335 168.615 202.08 168.803 201.893C168.99 201.705 169.245 201.6 169.51 201.6H172.51C172.775 201.6 173.029 201.705 173.217 201.893C173.404 202.08 173.51 202.335 173.51 202.6C173.51 202.865 173.404 203.119 173.217 203.307C173.029 203.494 172.775 203.6 172.51 203.6Z" fill="white"/>
<path d="M288.14 273.75H287.7C287.435 273.75 287.181 273.644 286.993 273.457C286.805 273.269 286.7 273.015 286.7 272.75C286.7 272.485 286.805 272.23 286.993 272.043C287.181 271.855 287.435 271.75 287.7 271.75H288.14C288.941 271.758 289.734 271.598 290.47 271.282C291.205 270.965 291.866 270.497 292.41 269.91C292.589 269.714 292.839 269.596 293.104 269.584C293.369 269.572 293.629 269.666 293.825 269.845C294.021 270.024 294.138 270.273 294.151 270.539C294.163 270.804 294.069 271.064 293.89 271.26C293.157 272.051 292.267 272.681 291.277 273.11C290.287 273.539 289.219 273.757 288.14 273.75ZM281.63 273.75H275.57C275.305 273.75 275.051 273.644 274.863 273.457C274.675 273.269 274.57 273.015 274.57 272.75C274.57 272.485 274.675 272.23 274.863 272.043C275.051 271.855 275.305 271.75 275.57 271.75H281.63C281.895 271.75 282.15 271.855 282.337 272.043C282.525 272.23 282.63 272.485 282.63 272.75C282.63 273.015 282.525 273.269 282.337 273.457C282.15 273.644 281.895 273.75 281.63 273.75ZM269.51 273.75H263.45C263.185 273.75 262.931 273.644 262.743 273.457C262.555 273.269 262.45 273.015 262.45 272.75C262.45 272.485 262.555 272.23 262.743 272.043C262.931 271.855 263.185 271.75 263.45 271.75H269.51C269.775 271.75 270.03 271.855 270.217 272.043C270.405 272.23 270.51 272.485 270.51 272.75C270.51 273.015 270.405 273.269 270.217 273.457C270.03 273.644 269.775 273.75 269.51 273.75ZM257.39 273.75H251.33C251.065 273.75 250.81 273.644 250.623 273.457C250.435 273.269 250.33 273.015 250.33 272.75C250.33 272.485 250.435 272.23 250.623 272.043C250.81 271.855 251.065 271.75 251.33 271.75H257.39C257.655 271.75 257.91 271.855 258.097 272.043C258.285 272.23 258.39 272.485 258.39 272.75C258.39 273.015 258.285 273.269 258.097 273.457C257.91 273.644 257.655 273.75 257.39 273.75ZM245.27 273.75H239.2C238.935 273.75 238.681 273.644 238.493 273.457C238.305 273.269 238.2 273.015 238.2 272.75C238.2 272.485 238.305 272.23 238.493 272.043C238.681 271.855 238.935 271.75 239.2 271.75H245.27C245.535 271.75 245.79 271.855 245.977 272.043C246.165 272.23 246.27 272.485 246.27 272.75C246.27 273.015 246.165 273.269 245.977 273.457C245.79 273.644 245.535 273.75 245.27 273.75ZM233.14 273.75H227.14C226.875 273.75 226.621 273.644 226.433 273.457C226.245 273.269 226.14 273.015 226.14 272.75C226.14 272.485 226.245 272.23 226.433 272.043C226.621 271.855 226.875 271.75 227.14 271.75H233.14C233.405 271.75 233.66 271.855 233.847 272.043C234.035 272.23 234.14 272.485 234.14 272.75C234.14 273.015 234.035 273.269 233.847 273.457C233.66 273.644 233.405 273.75 233.14 273.75ZM221.02 273.75H214.96C214.695 273.75 214.441 273.644 214.253 273.457C214.065 273.269 213.96 273.015 213.96 272.75C213.96 272.485 214.065 272.23 214.253 272.043C214.441 271.855 214.695 271.75 214.96 271.75H221.02C221.285 271.75 221.54 271.855 221.727 272.043C221.915 272.23 222.02 272.485 222.02 272.75C222.02 273.015 221.915 273.269 221.727 273.457C221.54 273.644 221.285 273.75 221.02 273.75ZM208.9 273.75H202.84C202.575 273.75 202.321 273.644 202.133 273.457C201.945 273.269 201.84 273.015 201.84 272.75C201.84 272.485 201.945 272.23 202.133 272.043C202.321 271.855 202.575 271.75 202.84 271.75H208.9C209.165 271.75 209.42 271.855 209.607 272.043C209.795 272.23 209.9 272.485 209.9 272.75C209.9 273.015 209.795 273.269 209.607 273.457C209.42 273.644 209.165 273.75 208.9 273.75ZM196.77 273.75H190.71C190.445 273.75 190.191 273.644 190.003 273.457C189.815 273.269 189.71 273.015 189.71 272.75C189.71 272.485 189.815 272.23 190.003 272.043C190.191 271.855 190.445 271.75 190.71 271.75H196.77C197.035 271.75 197.29 271.855 197.477 272.043C197.665 272.23 197.77 272.485 197.77 272.75C197.77 273.015 197.665 273.269 197.477 273.457C197.29 273.644 197.035 273.75 196.77 273.75ZM184.65 273.75H178.59C178.325 273.75 178.071 273.644 177.883 273.457C177.695 273.269 177.59 273.015 177.59 272.75C177.59 272.485 177.695 272.23 177.883 272.043C178.071 271.855 178.325 271.75 178.59 271.75H184.65C184.915 271.75 185.17 271.855 185.357 272.043C185.545 272.23 185.65 272.485 185.65 272.75C185.65 273.015 185.545 273.269 185.357 273.457C185.17 273.644 184.915 273.75 184.65 273.75ZM294.65 265.91C294.385 265.91 294.131 265.804 293.943 265.617C293.755 265.429 293.65 265.175 293.65 264.91V258.85C293.65 258.585 293.755 258.33 293.943 258.143C294.131 257.955 294.385 257.85 294.65 257.85C294.915 257.85 295.17 257.955 295.357 258.143C295.545 258.33 295.65 258.585 295.65 258.85V264.91C295.65 265.168 295.55 265.417 295.371 265.603C295.192 265.79 294.948 265.899 294.69 265.91H294.65ZM294.65 253.79C294.385 253.79 294.131 253.684 293.943 253.497C293.755 253.309 293.65 253.055 293.65 252.79V246.73C293.65 246.465 293.755 246.21 293.943 246.023C294.131 245.835 294.385 245.73 294.65 245.73C294.915 245.73 295.17 245.835 295.357 246.023C295.545 246.21 295.65 246.465 295.65 246.73V252.79C295.65 253.048 295.55 253.297 295.371 253.483C295.192 253.67 294.948 253.779 294.69 253.79H294.65ZM294.65 241.67C294.385 241.67 294.131 241.564 293.943 241.377C293.755 241.189 293.65 240.935 293.65 240.67V234.6C293.65 234.335 293.755 234.08 293.943 233.893C294.131 233.705 294.385 233.6 294.65 233.6C294.915 233.6 295.17 233.705 295.357 233.893C295.545 234.08 295.65 234.335 295.65 234.6V240.67C295.65 240.928 295.55 241.177 295.371 241.363C295.192 241.55 294.948 241.659 294.69 241.67H294.65ZM294.65 229.54C294.385 229.54 294.131 229.434 293.943 229.247C293.755 229.059 293.65 228.805 293.65 228.54V222.48C293.65 222.215 293.755 221.96 293.943 221.773C294.131 221.585 294.385 221.48 294.65 221.48C294.915 221.48 295.17 221.585 295.357 221.773C295.545 221.96 295.65 222.215 295.65 222.48V228.54C295.65 228.798 295.55 229.047 295.371 229.233C295.192 229.42 294.948 229.529 294.69 229.54H294.65ZM294.65 217.42C294.385 217.42 294.131 217.314 293.943 217.127C293.755 216.939 293.65 216.685 293.65 216.42V210.36C293.65 210.095 293.755 209.84 293.943 209.653C294.131 209.465 294.385 209.36 294.65 209.36C294.915 209.36 295.17 209.465 295.357 209.653C295.545 209.84 295.65 210.095 295.65 210.36V216.42C295.65 216.678 295.55 216.927 295.371 217.113C295.192 217.3 294.948 217.409 294.69 217.42H294.65ZM293.14 205.69C293.001 205.691 292.864 205.663 292.736 205.608C292.609 205.553 292.494 205.472 292.4 205.37C291.85 204.798 291.187 204.346 290.454 204.041C289.721 203.737 288.934 203.587 288.14 203.6H287.67C287.405 203.6 287.151 203.494 286.963 203.307C286.775 203.119 286.67 202.865 286.67 202.6C286.67 202.335 286.775 202.08 286.963 201.893C287.151 201.705 287.405 201.6 287.67 201.6H288.14C289.213 201.592 290.277 201.806 291.263 202.23C292.249 202.653 293.137 203.276 293.87 204.06C294.049 204.255 294.142 204.513 294.131 204.777C294.12 205.041 294.005 205.291 293.81 205.47C293.621 205.622 293.383 205.7 293.14 205.69ZM281.62 203.6H275.56C275.295 203.6 275.041 203.494 274.853 203.307C274.665 203.119 274.56 202.865 274.56 202.6C274.56 202.335 274.665 202.08 274.853 201.893C275.041 201.705 275.295 201.6 275.56 201.6H281.62C281.885 201.6 282.14 201.705 282.327 201.893C282.515 202.08 282.62 202.335 282.62 202.6C282.62 202.865 282.515 203.119 282.327 203.307C282.14 203.494 281.885 203.6 281.62 203.6ZM269.49 203.6H263.43C263.165 203.6 262.91 203.494 262.723 203.307C262.535 203.119 262.43 202.865 262.43 202.6C262.43 202.335 262.535 202.08 262.723 201.893C262.91 201.705 263.165 201.6 263.43 201.6H269.49C269.755 201.6 270.01 201.705 270.197 201.893C270.385 202.08 270.49 202.335 270.49 202.6C270.49 202.865 270.385 203.119 270.197 203.307C270.01 203.494 269.755 203.6 269.49 203.6ZM257.37 203.6H251.31C251.045 203.6 250.791 203.494 250.603 203.307C250.415 203.119 250.31 202.865 250.31 202.6C250.31 202.335 250.415 202.08 250.603 201.893C250.791 201.705 251.045 201.6 251.31 201.6H257.37C257.635 201.6 257.89 201.705 258.077 201.893C258.265 202.08 258.37 202.335 258.37 202.6C258.37 202.865 258.265 203.119 258.077 203.307C257.89 203.494 257.635 203.6 257.37 203.6ZM245.25 203.6H239.19C238.925 203.6 238.671 203.494 238.483 203.307C238.295 203.119 238.19 202.865 238.19 202.6C238.19 202.335 238.295 202.08 238.483 201.893C238.671 201.705 238.925 201.6 239.19 201.6H245.25C245.515 201.6 245.77 201.705 245.957 201.893C246.145 202.08 246.25 202.335 246.25 202.6C246.25 202.865 246.145 203.119 245.957 203.307C245.77 203.494 245.515 203.6 245.25 203.6ZM233.14 203.6H227.07C226.805 203.6 226.551 203.494 226.363 203.307C226.175 203.119 226.07 202.865 226.07 202.6C226.07 202.335 226.175 202.08 226.363 201.893C226.551 201.705 226.805 201.6 227.07 201.6H233.14C233.405 201.6 233.66 201.705 233.847 201.893C234.035 202.08 234.14 202.335 234.14 202.6C234.14 202.865 234.035 203.119 233.847 203.307C233.66 203.494 233.405 203.6 233.14 203.6ZM221.01 203.6H214.94C214.675 203.6 214.421 203.494 214.233 203.307C214.045 203.119 213.94 202.865 213.94 202.6C213.94 202.335 214.045 202.08 214.233 201.893C214.421 201.705 214.675 201.6 214.94 201.6H221C221.265 201.6 221.52 201.705 221.707 201.893C221.895 202.08 222 202.335 222 202.6C222 202.865 221.895 203.119 221.707 203.307C221.52 203.494 221.265 203.6 221 203.6H221.01ZM208.89 203.6H202.83C202.565 203.6 202.311 203.494 202.123 203.307C201.935 203.119 201.83 202.865 201.83 202.6C201.83 202.335 201.935 202.08 202.123 201.893C202.311 201.705 202.565 201.6 202.83 201.6H208.89C209.155 201.6 209.41 201.705 209.597 201.893C209.785 202.08 209.89 202.335 209.89 202.6C209.89 202.865 209.785 203.119 209.597 203.307C209.41 203.494 209.155 203.6 208.89 203.6ZM196.77 203.6H190.71C190.445 203.6 190.191 203.494 190.003 203.307C189.815 203.119 189.71 202.865 189.71 202.6C189.71 202.335 189.815 202.08 190.003 201.893C190.191 201.705 190.445 201.6 190.71 201.6H196.77C197.035 201.6 197.29 201.705 197.477 201.893C197.665 202.08 197.77 202.335 197.77 202.6C197.77 202.865 197.665 203.119 197.477 203.307C197.29 203.494 197.035 203.6 196.77 203.6ZM184.64 203.6H178.58C178.315 203.6 178.061 203.494 177.873 203.307C177.685 203.119 177.58 202.865 177.58 202.6C177.58 202.335 177.685 202.08 177.873 201.893C178.061 201.705 178.315 201.6 178.58 201.6H184.64C184.905 201.6 185.16 201.705 185.347 201.893C185.535 202.08 185.64 202.335 185.64 202.6C185.64 202.865 185.535 203.119 185.347 203.307C185.16 203.494 184.905 203.6 184.64 203.6Z" fill="white"/>
<path d="M172.51 273.75H169.51C169.245 273.75 168.99 273.645 168.803 273.457C168.615 273.27 168.51 273.015 168.51 272.75C168.51 272.485 168.615 272.23 168.803 272.043C168.99 271.855 169.245 271.75 169.51 271.75H172.51C172.775 271.75 173.029 271.855 173.217 272.043C173.404 272.23 173.51 272.485 173.51 272.75C173.51 273.015 173.404 273.27 173.217 273.457C173.029 273.645 172.775 273.75 172.51 273.75Z" fill="white"/>
<path d="M161.969 248.88H198.839C200.739 248.88 202.279 247.34 202.279 245.44V229.86C202.279 227.96 200.739 226.42 198.839 226.42H161.969C160.069 226.42 158.529 227.96 158.529 229.86V245.44C158.529 247.34 160.069 248.88 161.969 248.88Z" fill="#13304E"/>
<path d="M190.38 243.47C193.594 243.47 196.2 240.864 196.2 237.65C196.2 234.436 193.594 231.83 190.38 231.83C187.165 231.83 184.56 234.436 184.56 237.65C184.56 240.864 187.165 243.47 190.38 243.47Z" fill="#7B8C9D"/>
<path d="M190.38 241.77C192.655 241.77 194.5 239.925 194.5 237.65C194.5 235.374 192.655 233.53 190.38 233.53C188.104 233.53 186.26 235.374 186.26 237.65C186.26 239.925 188.104 241.77 190.38 241.77Z" fill="#13304E"/>
<path d="M187.47 237.65C187.47 237.074 187.64 236.512 187.96 236.033C188.28 235.554 188.734 235.182 189.266 234.961C189.798 234.741 190.383 234.683 190.947 234.796C191.512 234.908 192.03 235.185 192.437 235.592C192.844 235.999 193.122 236.518 193.234 237.082C193.346 237.647 193.288 238.232 193.068 238.763C192.848 239.295 192.475 239.75 191.996 240.069C191.518 240.389 190.955 240.56 190.38 240.56C189.998 240.56 189.619 240.484 189.266 240.338C188.913 240.192 188.592 239.978 188.322 239.707C188.052 239.437 187.837 239.116 187.691 238.763C187.545 238.41 187.47 238.032 187.47 237.65Z" fill="#EFBC16"/>
<path opacity="0.25" d="M301.12 127.95L301.11 139.08L287.88 119.85L301.12 127.95Z" fill="#FBD34C"/>
<path opacity="0.1" d="M450.38 284.571C450.38 162.131 351.13 62.8711 228.69 62.8711C106.25 62.8711 7 162.131 7 284.571" fill="url(#paint4_linear_2_12899)"/>
<path d="M118.919 2.21121C118.911 1.76955 118.773 1.34007 118.522 0.9768C118.27 0.613526 117.917 0.332669 117.507 0.169549C117.096 0.00642954 116.647 -0.031672 116.214 0.0600369C115.782 0.151746 115.387 0.36917 115.078 0.684968C114.769 1.00077 114.561 1.40084 114.478 1.83488C114.396 2.26892 114.444 2.71755 114.617 3.12435C114.789 3.53114 115.077 3.87795 115.446 4.12116C115.815 4.36436 116.247 4.49311 116.689 4.49121C116.986 4.49129 117.28 4.43199 117.554 4.31681C117.828 4.20163 118.076 4.03288 118.284 3.82048C118.492 3.60808 118.655 3.35631 118.764 3.07996C118.873 2.8036 118.926 2.50824 118.919 2.21121Z" fill="#13304E"/>
<path d="M217.7 27.7798C218.512 27.7798 219.17 27.1217 219.17 26.3098C219.17 25.498 218.512 24.8398 217.7 24.8398C216.889 24.8398 216.23 25.498 216.23 26.3098C216.23 27.1217 216.889 27.7798 217.7 27.7798Z" fill="#13304E"/>
<defs>
<linearGradient id="paint0_linear_2_12899" x1="227.995" y1="122.78" x2="227.995" y2="126.02" gradientUnits="userSpaceOnUse">
<stop stop-color="#6564DB"/>
<stop offset="1" stop-color="#55DDE0"/>
</linearGradient>
<linearGradient id="paint1_linear_2_12899" x1="246" y1="122.56" x2="246" y2="126.24" gradientUnits="userSpaceOnUse">
<stop stop-color="#6564DB"/>
<stop offset="1" stop-color="#55DDE0"/>
</linearGradient>
<linearGradient id="paint2_linear_2_12899" x1="231.139" y1="129.61" x2="231.139" y2="293.2" gradientUnits="userSpaceOnUse">
<stop stop-color="#6564DB"/>
<stop offset="1" stop-color="#55DDE0"/>
</linearGradient>
<linearGradient id="paint3_linear_2_12899" x1="231.129" y1="311.54" x2="231.129" y2="322.24" gradientUnits="userSpaceOnUse">
<stop stop-color="#6564DB"/>
<stop offset="1" stop-color="#55DDE0"/>
</linearGradient>
<linearGradient id="paint4_linear_2_12899" x1="228.69" y1="62.8711" x2="228.69" y2="284.571" gradientUnits="userSpaceOnUse">
<stop stop-color="#6564DB"/>
<stop offset="1" stop-color="#55DDE0"/>
</linearGradient>
</defs>
</svg>
