<svg width="109" height="155" viewBox="0 0 109 155" fill="none" xmlns="http://www.w3.org/2000/svg">
<path d="M107.26 52.5099C106.991 38.7635 101.342 25.6706 91.5259 16.0439C81.7094 6.41722 68.5088 1.02466 54.7598 1.02466C41.0107 1.02466 27.8101 6.41722 17.9937 16.0439C8.17723 25.6706 2.52808 38.7635 2.25977 52.5099H107.26Z" fill="url(#paint0_linear_2_12890)"/>
<path d="M89.6701 52.51C89.6701 23.51 74.0401 0 54.7501 0C35.4601 0 19.8301 23.51 19.8301 52.51H89.6701Z" fill="#6564DB"/>
<path d="M68.0994 52.51C68.0994 23.51 62.0994 0 54.7494 0C47.3994 0 41.3994 23.51 41.3994 52.51H68.0994Z" fill="url(#paint1_linear_2_12890)"/>
<path d="M54.7502 60.24C83.7507 60.24 107.26 56.7792 107.26 52.51C107.26 48.2409 83.7507 44.78 54.7502 44.78C25.7498 44.78 2.24023 48.2409 2.24023 52.51C2.24023 56.7792 25.7498 60.24 54.7502 60.24Z" fill="#6564DB"/>
<g style="mix-blend-mode:multiply" opacity="0.5">
<path d="M107.26 52.52C107.26 54.83 100.32 56.91 89.3298 58.32C83.3298 59.1 76.0098 59.68 67.9998 60C63.7798 60.15 59.3298 60.24 54.7498 60.24C50.1698 60.24 45.7498 60.15 41.4898 59.99C33.4898 59.68 26.2098 59.1 20.1798 58.32C9.18976 56.91 2.25977 54.79 2.25977 52.52C2.25977 50.25 9.81976 47.93 21.6298 46.52C27.5498 45.81 34.5498 45.28 42.1998 45.01C46.1998 44.87 50.4298 44.79 54.7698 44.79C59.1098 44.79 63.3098 44.87 67.3298 45.01C74.9998 45.28 81.9898 45.81 87.9098 46.52C99.7098 47.93 107.26 50.09 107.26 52.52Z" fill="#7B8C9D"/>
</g>
<g style="mix-blend-mode:multiply" opacity="0.5">
<path d="M42.1797 45C41.8497 49.77 41.6097 54.79 41.4897 60C33.4897 59.69 26.2097 59.11 20.1797 58.33C20.4697 54.27 20.9597 50.33 21.6097 46.52C27.5297 45.79 34.5297 45.27 42.1797 45Z" fill="#7B8C9D"/>
<path d="M89.3296 58.32C83.3296 59.1 76.0096 59.68 67.9996 60C67.8896 54.8 67.6396 49.77 67.3096 45C74.9796 45.27 81.9696 45.8 87.8896 46.51C88.5496 50.31 89.0296 54.26 89.3296 58.32Z" fill="#7B8C9D"/>
</g>
<path d="M54.749 97.6301C54.5154 97.6305 54.2889 97.5491 54.109 97.4001L1.59903 53.2701C1.39895 53.0994 1.27416 52.8567 1.2517 52.5947C1.22924 52.3326 1.31092 52.0723 1.47903 51.8701C1.56298 51.7688 1.66608 51.6851 1.78243 51.6237C1.89877 51.5624 2.02608 51.5246 2.15706 51.5125C2.28804 51.5004 2.42011 51.5143 2.54571 51.5534C2.67132 51.5924 2.78798 51.6559 2.88903 51.7401L54.749 95.3201L106.609 51.7901C106.71 51.7059 106.827 51.6424 106.952 51.6034C107.078 51.5643 107.21 51.5504 107.341 51.5625C107.472 51.5746 107.599 51.6124 107.716 51.6737C107.832 51.7351 107.935 51.8188 108.019 51.9201C108.187 52.1223 108.269 52.3827 108.246 52.6447C108.224 52.9067 108.099 53.1494 107.899 53.3201L55.389 97.4001C55.2091 97.5491 54.9827 97.6305 54.749 97.6301Z" fill="#13304E"/>
<path d="M54.7495 97.6299C54.5224 97.6371 54.2997 97.5667 54.1179 97.4304C53.9361 97.2941 53.8062 97.0999 53.7495 96.8799L40.5395 45.2799C40.4732 45.0226 40.5118 44.7496 40.6468 44.5208C40.7819 44.292 41.0023 44.1262 41.2595 44.0599C41.5168 43.9936 41.7898 44.0322 42.0186 44.1672C42.2474 44.3023 42.4132 44.5226 42.4795 44.7799L54.7495 92.5899L66.9795 44.5299C67.0121 44.4024 67.0696 44.2826 67.1486 44.1774C67.2277 44.0721 67.3267 43.9835 67.44 43.9166C67.5534 43.8497 67.6788 43.8059 67.8091 43.7876C67.9395 43.7692 68.0721 43.7768 68.1995 43.8099C68.327 43.8425 68.4468 43.9 68.5521 43.979C68.6573 44.0581 68.7459 44.1571 68.8128 44.2704C68.8797 44.3838 68.9235 44.5092 68.9419 44.6395C68.9602 44.7699 68.9526 44.9025 68.9195 45.0299L55.7195 96.8799C55.6628 97.0999 55.5329 97.2941 55.3511 97.4304C55.1694 97.5667 54.9466 97.6371 54.7195 97.6299H54.7495Z" fill="#13304E"/>
<path d="M4.47964 52.51C4.47173 52.0679 4.33316 51.638 4.08138 51.2746C3.82961 50.9111 3.47589 50.6302 3.0648 50.4674C2.6537 50.3046 2.20362 50.2671 1.77125 50.3597C1.33888 50.4522 0.943564 50.6706 0.635107 50.9874C0.326649 51.3042 0.118845 51.7052 0.0378776 52.1399C-0.0430901 52.5746 0.00639965 53.0235 0.18011 53.4301C0.353821 53.8367 0.643983 54.1828 1.01404 54.4248C1.3841 54.6668 1.8175 54.7939 2.25964 54.79C2.5559 54.7887 2.84895 54.7284 3.12165 54.6127C3.39436 54.4969 3.64126 54.3279 3.84793 54.1157C4.05461 53.9034 4.21692 53.6521 4.32539 53.3764C4.43385 53.1007 4.48629 52.8062 4.47964 52.51Z" fill="#13304E"/>
<path d="M43.7696 44.7901C43.7696 44.349 43.6388 43.9179 43.3937 43.5511C43.1487 43.1844 42.8004 42.8986 42.393 42.7298C41.9855 42.561 41.5371 42.5169 41.1045 42.6029C40.6719 42.689 40.2746 42.9013 39.9627 43.2132C39.6509 43.5251 39.4385 43.9224 39.3524 44.355C39.2664 44.7876 39.3105 45.236 39.4793 45.6434C39.6481 46.0509 39.9339 46.3992 40.3006 46.6442C40.6674 46.8893 41.0985 47.0201 41.5396 47.0201C42.131 47.0201 42.6982 46.7851 43.1164 46.3669C43.5346 45.9487 43.7696 45.3815 43.7696 44.7901Z" fill="#13304E"/>
<path d="M70.1797 44.7901C70.1797 44.349 70.0489 43.9179 69.8039 43.5511C69.5589 43.1844 69.2106 42.8986 68.8031 42.7298C68.3956 42.561 67.9473 42.5169 67.5147 42.6029C67.0821 42.689 66.6848 42.9013 66.3729 43.2132C66.061 43.5251 65.8486 43.9224 65.7626 44.355C65.6765 44.7876 65.7207 45.236 65.8895 45.6434C66.0583 46.0509 66.3441 46.3992 66.7108 46.6442C67.0775 46.8893 67.5087 47.0201 67.9497 47.0201C68.5412 47.0201 69.1084 46.7851 69.5266 46.3669C69.9448 45.9487 70.1797 45.3815 70.1797 44.7901Z" fill="#13304E"/>
<path d="M85.9296 123.28C85.935 124.178 85.8949 125.076 85.8096 125.97C85.5066 129.601 84.5619 133.149 83.0196 136.45C82.2558 138.106 81.3384 139.686 80.2796 141.17C77.1298 145.632 72.8833 149.207 67.9496 151.55C66.2925 152.318 64.573 152.944 62.8096 153.42C61.0641 153.886 59.2802 154.194 57.4796 154.34C56.5796 154.43 55.6696 154.47 54.7496 154.47C53.8296 154.47 52.9096 154.47 52.0096 154.34C50.209 154.193 48.4253 153.885 46.6796 153.42C44.9218 152.947 43.2086 152.321 41.5596 151.55C39.9199 150.772 38.3536 149.849 36.8796 148.79C32.3836 145.648 28.7934 141.379 26.4696 136.41C24.9262 133.114 23.9847 129.568 23.6896 125.94C23.5162 124.144 23.5162 122.336 23.6896 120.54C23.9881 116.913 24.9294 113.368 26.4696 110.07C28.7829 105.095 32.3752 100.823 36.8796 97.69C41.3451 94.5442 46.5669 92.6426 52.0096 92.1801C52.9096 92.0901 53.8196 92.0601 54.7496 92.0601C55.6796 92.0601 56.5796 92.0601 57.4796 92.1801C59.2812 92.3248 61.0655 92.6361 62.8096 93.1101C64.5744 93.5816 66.2943 94.2074 67.9496 94.9801C69.5811 95.7417 71.1407 96.6487 72.6096 97.69C75.5985 99.7798 78.1893 102.388 80.2596 105.39C81.3184 106.874 82.2358 108.455 82.9996 110.11C84.5382 113.412 85.4826 116.96 85.7896 120.59C85.8816 121.484 85.9283 122.382 85.9296 123.28Z" fill="#FB9129"/>
<path d="M70.5002 123.28L85.8102 125.97C85.6613 127.795 85.3467 129.602 84.8702 131.37L69.5402 128.66L83.0202 136.45C82.2564 138.106 81.3391 139.686 80.2802 141.17L66.8202 133.4L76.8202 145.32C75.5277 146.613 74.1221 147.788 72.6202 148.83L62.6202 136.92L67.9502 151.55C66.2932 152.318 64.5736 152.944 62.8102 153.42L57.4802 138.79V154.34C56.5802 154.43 55.6702 154.47 54.7502 154.47C53.8302 154.47 52.9102 154.47 52.0102 154.34V138.79L46.6802 153.42C44.9224 152.947 43.2093 152.321 41.5602 151.55L46.8702 136.92L36.8802 148.79C35.3803 147.745 33.9749 146.571 32.6802 145.28L42.6802 133.36L29.2602 141.18C28.2107 139.686 27.2939 138.104 26.5202 136.45L40.0002 128.66L24.6702 131.37C24.1971 129.605 23.8858 127.801 23.7402 125.98L39.0502 123.28L23.7402 120.58C23.885 118.762 24.1963 116.961 24.6702 115.2L40.0002 117.9L26.5202 110.11C27.2939 108.457 28.2107 106.874 29.2602 105.38L42.7402 113.16L32.7402 101.24C34.0349 99.9495 35.4403 98.775 36.9402 97.7301L46.9402 109.64L41.5602 95.0201C43.2057 94.2404 44.9196 93.6144 46.6802 93.1501L52.0102 107.79V92.2201C52.9102 92.1301 53.8202 92.1001 54.7502 92.1001C55.6802 92.1001 56.5802 92.1001 57.4802 92.2201V107.79L62.8102 93.1701C64.575 93.6417 66.295 94.2674 67.9502 95.0401L62.6202 109.66L72.6202 97.7501C74.1221 98.7925 75.5277 99.9672 76.8202 101.26L66.8202 113.18L80.2602 105.39C81.3191 106.874 82.2364 108.455 83.0002 110.11L69.5202 117.9L84.8502 115.2C85.3275 116.964 85.6422 118.768 85.7902 120.59L70.5002 123.28Z" fill="#FBD34C"/>
<path d="M78.9068 128.979C82.0569 115.633 73.791 102.26 60.4445 99.1094C47.098 95.9594 33.7249 104.225 30.5748 117.572C27.4247 130.918 35.6906 144.291 49.0371 147.441C62.3836 150.592 75.7568 142.326 78.9068 128.979Z" fill="#FB9129"/>
<path d="M54.749 145.32C66.9213 145.32 76.789 135.452 76.789 123.28C76.789 111.108 66.9213 101.24 54.749 101.24C42.5766 101.24 32.709 111.108 32.709 123.28C32.709 135.452 42.5766 145.32 54.749 145.32Z" fill="#EFBC16"/>
<path d="M54.75 128.18L65.99 121.29L54.75 104.94L43.5 121.29L54.75 128.18Z" fill="white"/>
<path d="M54.7499 131.49L44.6699 125.31L54.7499 139.97L64.8299 125.32L54.7499 131.49Z" fill="white"/>
<path opacity="0.25" d="M54.75 104.94V128.18L43.5 121.29L54.75 104.94Z" fill="#FBD34C"/>
<path opacity="0.25" d="M54.7499 131.49V139.97L44.6699 125.31L54.7499 131.49Z" fill="#FBD34C"/>
<defs>
<linearGradient id="paint0_linear_2_12890" x1="54.7598" y1="1.02466" x2="54.7598" y2="52.5099" gradientUnits="userSpaceOnUse">
<stop stop-color="#6564DB"/>
<stop offset="1" stop-color="#55DDE0"/>
</linearGradient>
<linearGradient id="paint1_linear_2_12890" x1="54.7494" y1="0" x2="54.7494" y2="52.51" gradientUnits="userSpaceOnUse">
<stop stop-color="#6564DB"/>
<stop offset="1" stop-color="#55DDE0"/>
</linearGradient>
</defs>
</svg>
